<svg xmlns="http://www.w3.org/2000/svg" xmlns:xlink="http://www.w3.org/1999/xlink" id="b" viewBox="0 0 655.61 517.01"><defs><linearGradient id="d" x1="131.3" y1="302.42" x2="124.44" y2="290.54" gradientTransform="translate(-67.79 53.56) rotate(142.49) scale(.92 -1.19) skewX(-3.41)" gradientUnits="userSpaceOnUse"><stop offset="0" stop-color="#8787a0"></stop><stop offset=".16" stop-color="#8a8aa2"></stop><stop offset=".29" stop-color="#9494aa"></stop><stop offset=".41" stop-color="#a5a5b8"></stop><stop offset=".5" stop-color="#b7b7c6"></stop><stop offset=".68" stop-color="#c5c5d1"></stop><stop offset="1" stop-color="#e6e6eb"></stop></linearGradient><linearGradient id="e" x1="113.25" y1="338.49" x2="106.39" y2="326.61" xlink:href="#d"></linearGradient></defs><g id="c"><path d="m151.81,158.64l-46.22-26.14c-2.17-1.23-4.83-1.23-7.01-.01l-24.77,13.91c-4.88,2.74-4.85,9.79.05,12.49l54.42,29.93c3.93,2.16,8.2,3.62,12.63,4.3l38.82,6.01-6.4-22.4-21.53-18.08Z" style="fill:#141415; opacity:.25;"></path><path d="m136.62,148.28v35.33c-1.28,0-2.55-.33-3.7-.99l-24.2-13.97s-.03-.02-.04-.03c-2.26-1.33-3.65-3.75-3.65-6.38v-27.94c0-1.32.36-2.59,1-3.69l30.59,17.66Z" style="fill:#ffc20e;"></path><path d="m168.21,162.25c0,2.64-1.41,5.08-3.7,6.4l-24.19,13.97c-1.15.66-2.42.99-3.7.99v-35.33l30.59-17.66c.64,1.1.99,2.37.99,3.69v27.94Z" style="fill:#e8a200;"></path><path d="m167.21,130.62l-30.59,17.66-30.59-17.66c.64-1.1,1.56-2.04,2.7-2.7l21.88-12.64,2.3-1.33s.02-.01.03-.02c2.28-1.3,5.09-1.3,7.36.02l24.19,13.97c1.14.66,2.06,1.6,2.7,2.7Z" style="fill:#ffd364;"></path><path d="m179.75,163.79v35.33c-1.28,0-2.55-.33-3.7-.99l-24.2-13.97c-2.29-1.32-3.7-3.76-3.7-6.4v-27.94c0-1.32.36-2.59.99-3.7l30.59,17.66Z" style="fill:#00b5b0;"></path><path d="m211.33,149.82v27.94c0,2.64-1.41,5.08-3.7,6.4l-24.2,13.97c-1.14.66-2.42.99-3.7.99v-35.33l30.6-17.66c.64,1.11.99,2.37.99,3.69Z" style="fill:#249fa3;"></path><path d="m210.34,146.13l-30.6,17.67-30.59-17.66c.64-1.1,1.56-2.04,2.7-2.7l24.19-13.97c2.29-1.32,5.11-1.32,7.39,0l24.2,13.97c1.14.66,2.07,1.6,2.7,2.7Z" style="fill:#00c7c7;"></path><polygon points="107.87 164.89 107.87 134.95 133.79 149.92 133.79 179.85 107.87 164.89" style="fill:#f5d498;"></polygon><polygon points="116.09 164.32 117.83 163.31 117.11 165.8 115.38 166.81 116.09 164.32" style="fill:#eae6df;"></polygon><path d="m116.49,163.16l1.73-1.01c.26.15.85.43,1.78.85l-1.73,1.01c-.93-.42-1.52-.7-1.78-.85Z" style="fill:#eae6df;"></path><path d="m118.27,164.01l1.73-1.01c.56.23,1.17.43,1.82.58l-1.73,1.01c-.66-.16-1.26-.35-1.82-.58Z" style="fill:#eae6df;"></path><path d="m118.29,158.21l1.73-1.01c-.2.47-.52,1.24-.95,2.32-.24.63-.52,1.5-.85,2.63l-1.73,1.01c.33-1.13.61-2,.85-2.63.43-1.08.75-1.85.95-2.32Z" style="fill:#eae6df;"></path><path d="m125.88,160.74l1.73-1.01c.59,3.36,1.41,7.88,2.47,13.56l-1.73,1.01c-1.05-5.68-1.87-10.2-2.47-13.56Z" style="fill:#eae6df;"></path><path d="m123.9,148.58l1.73-1.01c.24,1.72.9,5.77,1.97,12.16l-1.73,1.01c-1.08-6.39-1.73-10.44-1.97-12.16Z" style="fill:#eae6df;"></path><polygon points="116.03 144.03 117.77 143.02 125.64 147.57 123.9 148.58 116.03 144.03" style="fill:#eae6df;"></polygon><path d="m125.88,160.74c.59,3.36,1.41,7.88,2.47,13.56l-7.16-4.14-.48-2.28c-.2-.03-.7,0-1.51.05-.52.09-1.09.26-1.72.53l-.74-2.25c-.15-.45-.36-1.08-.64-1.89l-.72,2.49-3.8-2.19c.57-2.16,1.44-5.75,2.63-10.77.73-3.4,1.34-6.67,1.83-9.82l7.87,4.54c.24,1.72.9,5.77,1.97,12.16Zm-7.61,3.27c.56.23,1.17.43,1.82.58-.15-.62-.41-1.63-.78-3.04-.23-.8-.57-1.91-1.03-3.34-.2.47-.52,1.24-.95,2.32-.24.63-.52,1.5-.85,2.63.26.15.85.43,1.78.85h0Z" style="fill:#fcfcfc;"></path><polygon points="150.99 180.4 150.99 150.46 176.91 165.43 176.91 195.36 150.99 180.4" style="fill:#f5d498;"></polygon><path d="m163.02,181.68l1.75-1.02c.11.07.22.13.32.19l-1.75,1.02c-.1-.06-.21-.12-.32-.19Z" style="fill:#eae6df;"></path><path d="m167.08,181.33l-1.75,1.02c-.39.23-1.06.07-2-.47l1.75-1.02c.94.54,1.6.7,2,.47Z" style="fill:#eae6df;"></path><polygon points="163.11 178.01 164.86 176.99 164.77 180.66 163.02 181.68 163.11 178.01" style="fill:#eae6df;"></polygon><path d="m163.25,174.85l1.75-1.02c.1.06.2.12.29.17l-1.75,1.02c-.09-.05-.19-.11-.29-.17Z" style="fill:#eae6df;"></path><path d="m167.49,174.52l-1.75,1.02c-.44.25-1.17.08-2.2-.51l1.75-1.02c1.03.6,1.76.77,2.2.51Z" style="fill:#eae6df;"></path><path d="m170.8,185.97l-1.75,1.02c.7-.41,1.05-1.22,1.06-2.44,0-.79-.19-1.64-.57-2.56-.39-.92-.89-1.71-1.5-2.37l1.75-1.02c.62.66,1.12,1.45,1.5,2.37.38.92.58,1.77.57,2.56,0,1.22-.36,2.03-1.06,2.44Z" style="fill:#eae6df;"></path><polygon points="163.46 170.4 165.21 169.38 165 173.83 163.25 174.85 163.46 170.4" style="fill:#eae6df;"></polygon><path d="m171.43,178.25l-1.75,1.02c.28-.16.53-.37.76-.64l1.75-1.02c-.23.27-.49.48-.76.64Z" style="fill:#eae6df;"></path><path d="m170.45,178.63c-.65.74-1.45,1.07-2.41.98.62.66,1.12,1.45,1.5,2.37.38.92.58,1.78.57,2.56,0,1.96-.92,2.87-2.75,2.73-1.41-.1-3.26-.82-5.55-2.14-1.97-1.14-4.09-2.55-6.35-4.23-.05-2.39-.17-6.31-.35-11.76-.12-2.94-.31-6.98-.56-12.12,1.67.59,3.79,1.63,6.35,3.11,7.14,4.12,10.7,8.93,10.69,14.43,0,1.82-.39,3.17-1.15,4.06Zm-6.91-3.6c1.78,1.03,2.67.79,2.68-.71,0-.78-.27-1.53-.81-2.26-.46-.62-1.07-1.15-1.81-1.58-.04-.02-.09-.05-.13-.07l-.21,4.45c.1.06.2.12.29.17h0Zm-.2,6.85c1.61.93,2.41.73,2.42-.6,0-1.17-.73-2.18-2.19-3.03-.15-.09-.3-.17-.46-.24l-.09,3.67c.11.07.22.13.32.19h0Z" style="fill:#fcfcfc;"></path><path d="m154.56,157.03l1.75-1.02c1.67.59,3.79,1.63,6.35,3.11,7.14,4.12,10.7,8.93,10.69,14.43,0,1.82-.39,3.17-1.15,4.06l-1.75,1.02c.76-.89,1.14-2.24,1.15-4.06.02-5.5-3.55-10.3-10.69-14.43-2.56-1.48-4.68-2.51-6.35-3.11Z" style="fill:#eae6df;"></path><path d="m155.9,119.64v35.33c-1.27,0-2.55-.33-3.7-.99l-24.19-13.97c-2.29-1.32-3.7-3.76-3.7-6.4v-27.94c0-1.32.36-2.59.99-3.7l30.59,17.66Z" style="fill:#415156;"></path><path d="m187.49,105.67v27.94c0,2.64-1.41,5.08-3.7,6.4l-24.2,13.97c-1.14.66-2.42.99-3.7.99v-35.33l30.6-17.66c.64,1.1.99,2.37.99,3.69Z" style="fill:#2c393f;"></path><path d="m186.5,101.97l-30.6,17.67-30.59-17.66c.64-1.1,1.56-2.04,2.7-2.7l24.19-13.97c2.29-1.32,5.11-1.32,7.39,0l24.2,13.97c1.14.66,2.07,1.6,2.7,2.7Z" style="fill:#4b5d63;"></path><polygon points="127.15 136.24 127.15 106.31 153.07 121.27 153.07 151.2 127.15 136.24" style="fill:#f5d498;"></polygon><path d="m145.91,142.09l1.74-1.01c-.13.67-.24,1.36-.36,2.1l-1.74,1.01c.12-.73.24-1.43.36-2.1Z" style="fill:#eae6df;"></path><path d="m146.36,140.06l1.74-1.01c-.09.36-.24,1.04-.46,2.03l-1.74,1.01c.21-.99.37-1.67.46-2.03Z" style="fill:#eae6df;"></path><path d="m140.79,136.25l1.74-1.01c.78,1.35,1.81,2.39,3.09,3.13.87.5,1.7.73,2.48.69l-1.74,1.01c-.78.04-1.61-.19-2.48-.69-1.28-.74-2.31-1.78-3.09-3.13Z" style="fill:#eae6df;"></path><path d="m140.84,129.03l1.74-1.01c-.8.47-1.21,1.5-1.21,3.11,0,1.39.38,2.76,1.17,4.11l-1.74,1.01c-.78-1.35-1.17-2.72-1.17-4.11,0-1.61.41-2.64,1.21-3.11Z" style="fill:#eae6df;"></path><polygon points="146.02 121.19 147.76 120.18 148.16 129.92 146.41 130.93 146.02 121.19" style="fill:#eae6df;"></polygon><path d="m134.23,117.48l1.74-1.01c1.97-1.15,4.7-.72,8.17,1.29,1.67.96,2.88,1.77,3.62,2.43l-1.74,1.01c-.75-.65-1.95-1.46-3.62-2.43-3.47-2-6.2-2.44-8.17-1.29Z" style="fill:#eae6df;"></path><path d="m140.79,136.25c.78,1.35,1.81,2.39,3.09,3.13.87.5,1.7.73,2.48.69-.09.36-.24,1.04-.46,2.03-.13.67-.24,1.36-.36,2.1-.99-.14-2.25-.65-3.79-1.54-2.79-1.61-5.16-4.06-7.13-7.35-2.14-3.58-3.2-7.25-3.19-11.01,0-3.47.94-5.75,2.79-6.82,1.97-1.15,4.7-.72,8.17,1.29,1.67.96,2.88,1.77,3.62,2.43l.39,9.74c-.48-.45-1.1-.89-1.86-1.33-1.41-.81-2.55-1.05-3.43-.71-.99.38-1.49,1.46-1.5,3.25,0,1.39.38,2.76,1.17,4.11Z" style="fill:#fcfcfc;"></path><ellipse cx="78.02" cy="221.39" rx="59.99" ry="22.86" style="fill:#141415; opacity:.25;"></ellipse><path d="m100.61,142.98c-10.66-10.66-25.4-17.26-41.67-17.26-16.27,0-31,6.6-41.67,17.26C6.61,153.65,0,168.38,0,184.65s6.6,31.01,17.26,41.67c10.66,10.66,25.4,17.26,41.67,17.26,16.27,0,31-6.6,41.67-17.26,10.66-10.66,17.26-25.4,17.26-41.67,0-16.27-6.6-31-17.26-41.67Z" style="fill:#bdbdbd; fill-rule:evenodd;"></path><path d="m39.78,157.28c2.62-3.9,5.66-7.79,9.49-11.69,4.93.15,9.82.79,14.62,1.84,5.03,1.1,9.95,2.65,14.66,4.56.92,4.82,1.46,9.67,1.79,14.54.33,4.87.44,9.74.52,14.62-3.09,1.19-6.15,2.41-9.22,3.63-6.63,2.64-13.28,5.29-19.97,7.57-3.63-3.5-7.12-7.22-10.31-11.13-3.19-3.92-6.07-8.02-8.45-12.29,2.09-3.89,4.28-7.77,6.88-11.64Z" style="fill:#3f5359; fill-rule:evenodd;"></path><path d="m9.68,175.08v.02s-.07.17-.07.17v.02s-.06.17-.06.17v.02s-.06.17-.06.17v.03s-.06.17-.06.17v.03s-.06.16-.06.16v.03s-.06.16-.06.16v.04s-.06.16-.06.16v.04s-.06.16-.06.16v.04s-.06.15-.06.15v.05s-.06.15-.06.15v.05s-.06.15-.06.15l-.02.05-.04.15-.02.05-.04.14-.02.06-.04.14-.02.06-.04.14-.02.06-.04.14-.02.07-.04.13-.02.07-.04.13-.02.07-.04.13-.02.07-.03.13-.02.08-.03.12-.02.08-.03.12-.02.08-.03.12-.02.09-.03.11-.02.09-.03.11-.02.09-.03.11-.05.2-.02.1-.02.1-.03.1-.02.1-.02.1-.02.1-.03.11-.02.1-.03.11-.02.09-.03.11-.02.09-.03.12-.02.09-.03.12-.02.08-.03.12-.02.08-.03.12-.02.08-.03.13-.02.08-.03.13v.07s-.04.13-.04.13v.07s-.04.14-.04.14v.07s-.04.14-.04.14v.06s-.04.14-.04.14v.06s-.04.15-.04.15v.06s-.04.15-.04.15v.06s-.04.15-.04.15v.05s-.04.16-.04.16v.05s-.04.16-.04.16v.05s-.04.16-.04.16v.04s-.04.16-.04.16v.04s-.04.17-.04.17v.04s-.04.17-.04.17v.03s-.04.18-.04.18v.03s-.04.18-.04.18v.03s-.04.18-.04.18v.03s-.03.18-.03.18v.02s-.03.19-.03.19v.02s-.03.19-.03.19v.02s-.03.19-.03.19h0s-.03.21-.03.21h0s-.06.4-.06.4v.03s0,0,0,0l-.03.21h0s-.03.21-.03.21l-.03.2h0s-.03.2-.03.2v.02s-.03.18-.03.18v.03s-.03.17-.03.17v.04s-.03.16-.03.16v.05s-.03.15-.03.15v.06s-.03.14-.03.14v.08s-.03.13-.03.13v.09s-.03.12-.03.12v.1s-.03.11-.03.11v.11s-.03.1-.03.1v.12s-.03.08-.03.08l-.02.13v.07s-.03.14-.03.14v.06s-.03.15-.03.15v.05s-.03.16-.03.16v.04s-.03.17-.03.17v.03s-.03.19-.03.19v.02s-.03.2-.03.2h0s-.02.21-.02.21h0s-.02.21-.02.21h0s-.02.2-.02.2v.03s-.02.18-.02.18v.03s-.02.17-.02.17v.05s-.02.16-.02.16v.06s-.02.15-.02.15v.07s-.02.14-.02.14v.08s-.02.13-.02.13v.09s-.02.12-.02.12v.1s-.02.1-.02.1v.11s-.02.09-.02.09v.12s-.02.08-.02.08v.14s-.02.07-.02.07v.15s-.02.06-.02.06v.16s-.03.22-.03.22v.04s-.02.18-.02.18v.03s-.02.19-.02.19v.02s-.02.2-.02.2h0s-.02.21-.02.21h0s-.02.21-.02.21v.02s-.02.19-.02.19v.03s-.02.18-.02.18v.04s-.02.17-.02.17v.05s-.02.16-.02.16v.06s-.02.15-.02.15v.07s-.02.14-.02.14v.08s-.02.12-.02.12v.1s-.02.11-.02.11v.11s-.02.1-.02.1v.12s-.02.09-.02.09v.13s-.01.08-.01.08v.14s-.02.07-.02.07v.15s-.01.06-.01.06v.16s-.01.05-.01.05v.17s-.02.04-.02.04v.18s-.01.03-.01.03v.2s-.01.01-.01.01v.21s-.01,0-.01,0v.21s-.01,0-.01,0v.2s-.01.02-.01.02v.19s-.01.03-.01.03v.18s-.01.04-.01.04v.17s-3.56-1.95-3.56-1.95C.63,194.57,0,189.69,0,184.65c0-8.69,1.88-16.94,5.26-24.36.34,2.76.88,5.24,1.56,7.52.79,2.65,1.78,5.03,2.87,7.27Z" style="fill:#3f5359; fill-rule:evenodd;"></path><path d="m45.15,219.41l-22.61,3.12-.13-.14h-.01s-.13-.16-.13-.16h-.01s-.14-.16-.14-.16l-.14-.15h0s-.14-.16-.14-.16h0s-.14-.16-.14-.16h0l-.14-.15-.14-.15h0s-.13-.15-.13-.15h0s-.13-.15-.13-.15l-.14-.15h-.01s-.13-.15-.13-.15v-.02s-.14-.14-.14-.14l-.14-.15-.02-.02-.12-.13-.02-.02-.12-.13-.14-.16-.03-.03-.11-.13-.03-.03-.11-.12-.03-.04-.11-.12-.03-.04-.1-.12-.03-.04-.1-.12-.13-.16-.04-.05-.1-.11-.14-.16-.04-.05-.09-.1-.05-.05-.09-.1-.13-.16-.13-.16-.05-.06-.08-.09-.13-.16-.13-.16-.06-.07-.07-.09-.06-.07-.07-.08-.07-.08-.07-.08-.13-.16-.13-.16-.13-.16-.13-.16-.08-.09-.06-.07-.13-.16-.13-.16-.13-.16-.13-.16-.13-.16-.09-.11-.04-.05-.13-.16-.09-.12-.04-.04-.1-.12-.03-.04-.1-.12-.03-.04-.13-.16-.1-.13-.03-.03-.13-.16-.11-.13-.02-.03-.11-.13-.02-.03-.11-.14-.02-.02-.11-.14-.02-.02-.13-.16-.13-.16-.12-.15h0s-.12-.16-.12-.16h0s-.13-.17-.13-.17l-.25-.32-.13-.16-.13-.16-.13-.16h0s-.12-.16-.12-.16h0s-.12-.16-.12-.16l-.13-.16-.13-.16h0s-.12-.16-.12-.16l-.13-.16-.13-.16v-.02s-.12-.15-.12-.15l-.13-.16-.12-.16-.12-.16-.12-.16-.02-.03-.1-.14-.12-.16-.02-.03-.1-.13-.03-.03-.1-.13-.03-.04-.1-.13-.12-.16-.03-.04-.09-.12-.12-.17-.12-.17-.12-.17-.04-.05-.09-.12-.12-.17-.04-.05-.08-.11-.04-.05-.08-.11-.12-.17-.04-.06-.08-.11-.12-.17-.05-.06-.08-.1-.05-.06-.07-.1-.05-.07-.07-.1-.05-.07-.07-.1-.05-.07-.07-.1-.05-.07-.07-.1-.05-.07-.07-.09-.05-.08-.07-.09-.12-.17-.06-.08-.06-.09-.06-.08-.24-.34-.06-.08-.06-.09-.12-.17-.06-.08-.06-.09-.05-.08-.07-.09-.05-.07-.07-.1-.05-.07-.07-.1-.05-.07-.12-.17-.12-.17-.07-.1-.04-.07-.07-.11-.04-.06-.31-.45-.04-.06-.08-.11-.04-.06-.08-.12-.04-.05-.12-.17-.08-.12-.03-.05-.08-.12-.03-.05-.08-.12-.03-.05h0v-.22s.01,0,.01,0v-.22h.01v-.22h.01v-.22s.03-.22.03-.22h0v-.22h.01v-.22s.01,0,.01,0v-.22s.01,0,.01,0l.02-.22h0v-.22s.01,0,.01,0l.02-.22h0s.02-.22.02-.22v-.22s.03-.22.03-.22l.02-.22h0s.02-.22.02-.22l.02-.22.02-.22.02-.22h0s.02-.22.02-.22l.02-.21.02-.22.02-.21h0s.02-.22.02-.22l.02-.22.02-.22.02-.21.02-.22h0l.02-.21h0l.02-.21.02-.21h0l.02-.21h0s.02-.21.02-.21l.02-.21.02-.21.02-.21.02-.21.02-.21.02-.21.02-.21.02-.21.02-.21.02-.21.02-.21.02-.21.02-.21.03-.21.03-.21.03-.21.03-.21.03-.21.03-.21.03-.21.03-.21.03-.21.03-.21.03-.21.03-.21.03-.21.03-.21.03-.21.03-.21.03-.21.03-.21c.66-4.4,1.59-8.67,2.94-12.71l21.64-5.96c2.4,4.29,5.29,8.41,8.49,12.33,3.22,3.95,6.74,7.7,10.4,11.23-1.16,5.11-2.21,9.78-3.2,14.19-1.07,4.82-1.93,8.68-2.7,12.2Z" style="fill:#ebebeb; fill-rule:evenodd;"></path><path d="m5.75,202.71l.12.17.12.17.06.08.06.09.12.17.05.08.06.09.05.08.06.09.12.17.12.17.05.08.07.1.05.07.07.1.12.17.12.17.12.17.05.07.07.1.12.17.12.17.04.06.08.11.12.17.12.17.12.17.12.17.04.06.08.11.12.17.12.17.12.17.04.05.09.12.12.17.03.05.09.12.03.04.09.12.03.04.09.12.12.17.03.04.09.13.12.17.12.17.12.17.12.17.12.17.13.17.02.03.1.14.13.17.13.17.13.17.13.17.13.17.02.02.11.14.02.02.11.15.02.02.11.15.02.02.11.15v.02s.13.15.13.15l.13.17v.02s.13.15.13.15l.13.17.13.17h0s.12.17.12.17h0s.12.17.12.17l.13.17h0s.12.17.12.17l.13.17.13.17.13.17.13.17.13.17h0s.13.17.13.17l.13.16h0s.13.16.13.16h0s.13.16.13.16h0s.13.16.13.16h0s.13.16.13.16h0s.13.16.13.16h0s.13.17.13.17l.13.16.13.16.12.15h0s.13.17.13.17l.13.16.12.15h0s.13.18.13.18l.13.16.13.16.13.16.12.15v.02s.13.15.13.15v.02s.15.16.15.16l.12.14.02.02.14.16.14.16.13.16.14.16.12.14.02.02.14.16.12.14.02.02.14.16.11.13.02.03.14.16.14.16.14.16.11.13.03.03.11.13.03.03.11.13.03.03.14.16.14.16.14.16.11.13.03.03.11.12.03.04.28.32.11.12.03.04.14.16.11.12.04.04.14.16.14.16.14.16.14.16.1.12.04.04.1.11.04.04.1.11.04.04.14.16.1.11.04.04.1.11.04.05.14.16.1.11.04.05.1.11.05.05.14.16.1.11.05.05.1.1,5.26,11.09c-3.62-2.31-6.96-5-9.99-8.03-7.08-7.08-12.36-15.95-15.12-25.87l3.32,1.83.06.08.06.09.06.08.06.09.06.09Z" style="fill:#ebebeb; fill-rule:evenodd;"></path><path d="m56.71,243.55c-10.23-.38-19.79-3.37-28.04-8.31l-5.63-11.86c7.41-1.02,14.82-2.04,22.22-3.06l.12-.02c3.17,2.71,6.47,5.28,9.9,7.69,3.34,2.35,6.81,4.55,10.42,6.59-1.31,1.55-2.65,3.09-4.07,4.55-1.51,1.56-3.13,3.05-4.93,4.42Z" style="fill:#3f5359; fill-rule:evenodd;"></path><path d="m66.47,233.96c-3.7-2.07-7.25-4.32-10.67-6.72-3.39-2.38-6.64-4.92-9.77-7.59.94-4.27,1.86-8.43,2.71-12.24.96-4.3,2-8.95,3.19-14.19,6.69-2.28,13.38-4.94,20.04-7.59,3.1-1.23,6.2-2.47,9.25-3.64l7.66,6.57,11.19,9.59c-.84,4.82-1.95,9.26-3.22,13.49-1.28,4.25-2.71,8.29-4.18,12.28-3.78,2.19-7.85,4.11-12.21,5.79-4.37,1.68-9.03,3.1-14,4.27Z" style="fill:#ebebeb; fill-rule:evenodd;"></path><path d="m100.82,226.12l-.21.21c-10.67,10.67-25.4,17.26-41.68,17.26-.27,0-.53,0-.8,0,1.49-1.21,2.86-2.49,4.15-3.83,1.54-1.59,2.97-3.24,4.37-4.9,5-1.18,9.71-2.62,14.13-4.32,4.4-1.69,8.5-3.63,12.3-5.83,1.06.36,2.34.64,3.77.88,1.23.2,2.57.37,3.95.53Z" style="fill:#ebebeb; fill-rule:evenodd;"></path><path d="m100.63,197.42l-18.87-16.17c-.07-4.95-.19-9.88-.52-14.78-.33-4.87-.87-9.73-1.79-14.56,1.26-.53,4.21-2.05,7.2-3.6,3.79-1.96,7.63-3.98,7.65-3.97,2.89.97,5.8,3.05,8.55,5.75,3.26,3.19,6.3,7.24,8.87,11.34,1.59,4.59,2.57,8.93,3.12,13.13.54,4.16.66,8.17.53,12.13-1.9,1.99-4.18,3.96-6.71,5.81-2.46,1.79-5.17,3.46-8.02,4.93Z" style="fill:#ebebeb; fill-rule:evenodd;"></path><path d="m88.31,133.55c4.51,2.6,8.64,5.77,12.3,9.43,4.83,4.83,8.82,10.48,11.74,16.74l-.27.57c-2.52-3.94-5.46-7.79-8.59-10.86-2.77-2.72-5.71-4.83-8.67-5.88-.55-1.97-1.72-4.02-3.22-6.05-.99-1.34-2.11-2.67-3.29-3.95Z" style="fill:#3f5359; fill-rule:evenodd;"></path><path d="m48.86,126.57c-2.35.95-5.04,2.39-7.19,4.59-1.62-.28-4.05.08-6.74.78-1.89.5-3.92,1.16-5.87,1.89,6-3.53,12.68-6.04,19.8-7.26Z" style="fill:#3f5359; fill-rule:evenodd;"></path><path d="m42.39,131.74c3.51-3.57,8.6-5.03,10.93-5.69l.33-.09c1.74-.15,3.51-.24,5.29-.24,9.64,0,18.74,2.32,26.78,6.42,1.84,1.87,3.67,3.88,5.16,5.9,1.4,1.9,2.5,3.81,3.04,5.63-1.37.56-4.55,2.21-7.67,3.83-3.55,1.83-7,3.64-7.17,3.72-4.81-1.96-9.84-3.55-14.99-4.68-4.82-1.05-9.74-1.7-14.72-1.85l-6.97-12.95Z" style="fill:#ebebeb; fill-rule:evenodd;"></path><path d="m117.08,194.37c0-.19,0-.38,0-.57-.03-2.3-.28-4.63-.8-6.98.14-4.04.02-8.14-.53-12.39-.55-4.22-1.53-8.58-3.11-13.18l.22-.46c3.23,7.29,5.03,15.36,5.03,23.85,0,3.31-.27,6.55-.8,9.71Z" style="fill:#ebebeb; fill-rule:evenodd;"></path><path d="m115.55,187.8c.4,2.03.59,4.03.62,6.01.03,2.25-.14,4.48-.45,6.7-2.63,9.42-7.53,17.89-14.09,24.78-1.62-.17-3.19-.36-4.61-.6-1.27-.21-2.42-.46-3.38-.76,1.44-3.91,2.84-7.87,4.09-12.05,1.28-4.27,2.41-8.75,3.25-13.62,2.93-1.5,5.7-3.21,8.21-5.03,2.37-1.72,4.51-3.56,6.36-5.43Z" style="fill:#3f5359; fill-rule:evenodd;"></path><path d="m48.53,145.05c-3.82,3.91-6.88,7.82-9.5,11.72-2.64,3.93-4.84,7.85-6.95,11.77l-17.44,4.8-4.23,1.17c-1.03-2.14-1.97-4.42-2.73-6.96-.79-2.63-1.38-5.54-1.69-8.83,2.88-5.86,6.7-11.17,11.26-15.74,2.35-2.35,4.9-4.5,7.62-6.43,3.05-1.38,6.89-2.83,10.28-3.72,2.58-.68,4.9-1.03,6.37-.76l7,12.99Z" style="fill:#ebebeb; fill-rule:evenodd;"></path><path d="m4.49,200.71l-2.67-1.47C.63,194.57,0,189.69,0,184.65c0-8.69,1.88-16.94,5.26-24.36v.11c-2.88,6.43-4.49,13.56-4.49,21.07,0,6.8,1.32,13.29,3.72,19.23Z" style="fill:#283e43; fill-rule:evenodd;"></path><path d="m21.49,222.72l.07.08.05.05.14.16.1.11.05.05.1.1,5.26,11.09c-3.62-2.31-6.96-5-9.99-8.03-7.08-7.08-12.36-15.95-15.12-25.87l2.91,1.6c3.61,8.24,9.31,15.35,16.43,20.66Z" style="fill:#d7d7d7; fill-rule:evenodd;"></path><path d="m56.71,243.55c-10.23-.38-19.79-3.37-28.04-8.31l-5.3-11.17c8.22,5.57,18.13,8.82,28.81,8.82,3.16,0,6.26-.29,9.26-.83,1.4.87,2.82,1.71,4.26,2.52-1.31,1.55-2.65,3.09-4.07,4.55-1.51,1.56-3.13,3.05-4.93,4.42Z" style="fill:#283e43; fill-rule:evenodd;"></path><path d="m66.47,233.96c-1.25-.7-2.49-1.43-3.71-2.17,16.46-3.44,30.03-14.76,36.58-29.83-.71,3.37-1.56,6.57-2.48,9.65-1.28,4.25-2.71,8.29-4.18,12.28-3.78,2.19-7.85,4.11-12.21,5.79-4.37,1.68-9.03,3.1-14,4.27Z" style="fill:#d7d7d7; fill-rule:evenodd;"></path><path d="m100.82,226.12l-.21.21c-10.67,10.67-25.4,17.26-41.68,17.26-.27,0-.53,0-.8,0,1.49-1.21,2.86-2.49,4.15-3.83,1.54-1.59,2.97-3.24,4.37-4.9,5-1.18,9.71-2.62,14.13-4.32,4.4-1.69,8.5-3.63,12.3-5.83,1.06.36,2.34.64,3.77.88,1.23.2,2.57.37,3.95.53Z" style="fill:#d7d7d7; fill-rule:evenodd;"></path><path d="m89.95,146.59c2.45-1.27,4.34-2.27,4.36-2.26,2.89.97,5.8,3.05,8.55,5.75,3.26,3.19,6.3,7.24,8.87,11.34,1.59,4.59,2.57,8.93,3.12,13.13.54,4.16.66,8.17.53,12.13-1.9,1.99-4.18,3.96-6.71,5.81-2.31,1.68-4.84,3.26-7.5,4.66,1.58-4.94,2.44-10.21,2.44-15.67,0-13.46-5.18-25.71-13.65-34.88Z" style="fill:#d7d7d7; fill-rule:evenodd;"></path><path d="m88.31,133.55c4.51,2.6,8.64,5.77,12.3,9.43,4.83,4.83,8.82,10.48,11.74,16.74l-.27.57c-2.52-3.94-5.46-7.79-8.59-10.86-2.77-2.72-5.71-4.83-8.67-5.88-.55-1.97-1.72-4.02-3.22-6.05-.99-1.34-2.11-2.67-3.29-3.95Z" style="fill:#283e43; fill-rule:evenodd;"></path><path d="m48.86,126.57c-2.34.95-5.01,2.37-7.15,4.55l-.12.03c-1.62-.26-4.02.1-6.66.79-1.89.5-3.92,1.16-5.87,1.89,6-3.53,12.68-6.04,19.8-7.26Z" style="fill:#283e43; fill-rule:evenodd;"></path><path d="m43.39,130.81c3.42-2.9,7.82-4.16,9.93-4.77l.33-.09c1.74-.15,3.51-.24,5.29-.24,9.64,0,18.74,2.32,26.78,6.42,1.84,1.87,3.67,3.88,5.16,5.9,1.4,1.9,2.5,3.81,3.04,5.63-.92.38-2.63,1.23-4.6,2.24-9.36-9.77-22.53-15.85-37.13-15.85-3,0-5.93.26-8.79.75Z" style="fill:#d7d7d7; fill-rule:evenodd;"></path><path d="m117.08,194.37c0-.19,0-.38,0-.57-.03-2.3-.28-4.63-.8-6.98.14-4.04.02-8.14-.53-12.39-.55-4.22-1.53-8.58-3.11-13.18l.22-.46c3.23,7.29,5.03,15.36,5.03,23.85,0,3.31-.27,6.55-.8,9.71Z" style="fill:#d7d7d7; fill-rule:evenodd;"></path><path d="m115.55,187.8c.4,2.03.59,4.03.62,6.01.03,2.25-.14,4.48-.45,6.7-2.63,9.42-7.53,17.89-14.09,24.78-1.62-.17-3.19-.36-4.61-.6-1.27-.21-2.42-.46-3.38-.76,1.44-3.91,2.84-7.87,4.09-12.05,1.28-4.27,2.41-8.75,3.25-13.62,2.93-1.5,5.7-3.21,8.21-5.03,2.37-1.72,4.51-3.56,6.36-5.43Z" style="fill:#283e43; fill-rule:evenodd;"></path><path d="m6.01,158.83v-.11c2.87-5.86,6.69-11.17,11.25-15.74,2.35-2.35,4.9-4.5,7.62-6.43,3.05-1.38,6.89-2.83,10.28-3.72.45-.12.89-.22,1.32-.32-13.37,4.29-24.36,13.89-30.47,26.33Z" style="fill:#d7d7d7; fill-rule:evenodd;"></path><path d="m39.78,157.28c1.41-2.1,2.94-4.19,4.65-6.29,1.9,3.24,3.02,7.44,3.02,12.51,0,6.51-2.66,12.41-6.95,16.65-2.85-3.59-5.43-7.34-7.6-11.23,2.09-3.89,4.28-7.77,6.88-11.64Z" style="fill:#4c6065; fill-rule:evenodd;"></path><path d="m9.68,175.08v.02s-.07.17-.07.17v.02s-.06.17-.06.17v.02s-.06.17-.06.17v.03s-.06.17-.06.17v.03s-.06.16-.06.16v.03s-.06.16-.06.16v.04s-.06.16-.06.16v.04s-.06.16-.06.16v.04s-.06.15-.06.15v.05s-.06.15-.06.15v.05s-.06.15-.06.15l-.02.05-.04.15-.02.05-.04.14-.02.06-.04.14-.02.06-.04.14-.02.06-.04.14-.02.07-.04.13-.02.07-.04.13-.02.07-.04.13-.02.07-.03.13-.02.08-.03.12-.02.08h0c-1.73-3.23-2.16-7.21-1.57-11.31.78,2.58,1.75,4.91,2.82,7.1Z" style="fill:#4c6065; fill-rule:evenodd;"></path><path d="m9.09,180.4c.42-1.69.89-3.35,1.44-4.97l21.64-5.96c2.2,3.92,4.8,7.7,7.68,11.32-4.17,3.82-9.72,6.15-15.82,6.15-7.55,0-12.33-2.61-14.94-6.53Z" style="fill:#f6f6f6; fill-rule:evenodd;"></path><path d="m43.93,150.18c-1.81,2.2-3.42,4.4-4.9,6.6-2.64,3.93-4.84,7.85-6.95,11.77l-17.44,4.8-4.23,1.17c-1.03-2.14-1.97-4.42-2.73-6.96-.16-.52-.31-1.06-.45-1.61.96-4.26,2.96-8.53,5.71-12.14,10.2-13.39,24.44-13.54,30.98-3.63Z" style="fill:#f6f6f6; fill-rule:evenodd;"></path><path d="m60.99,295.2l145.88-84.22c4.57-2.64,11.95-2.64,16.49,0l1.85,1.08,1.87-1.08c3.71-2.14,9.24-2.51,13.63-1.18l94.55-28.86c4.57-2.64,11.95-2.63,16.49,0l231.93,134.78c4.54,2.64,4.52,6.91-.05,9.55l-119.12,36.36-134.94,77.91c-2.38,1.38-5.33,2.22-8.4,2.55l-.06.16h-25.32s-.04-.13-.04-.13c-3.28-.28-6.45-1.12-8.97-2.58L60.92,308.28c-6.21-3.61-6.18-9.47.07-13.08Z" style="fill:#141415; opacity:.25;"></path><path d="m220.58,194.69L269.82,8.34c.88-3.34,2.74-5.76,5.04-6.96l-.2-1.07,3.82-.3v.02c1.27.06,2.56.44,3.83,1.17l226.84,130.96c5.26,3.03,8.08,10.93,6.31,17.62l-49.23,186.35c-1,3.79-3.66,6.01-6.59,5.95h0s-.06,0-.06,0h0s-3.59.31-3.59.31l.25-1.02-230.84-133.27c-4-2.31-6.13-8.3-4.79-13.39Z" style="fill:#d2d2da;"></path><path d="m278.85,1.49c-5.25-3.03-10.94-.06-12.71,6.64l-49.23,186.35c-1.34,5.09.79,11.09,4.79,13.39l231.4,133.6c3.99,2.3,8.32.04,9.66-5.05l49.23-186.35c1.77-6.7-1.05-14.59-6.31-17.62L278.85,1.49h0Z" style="fill:#4b5d63;"></path><polygon points="272.67 6.5 507.94 142.33 459.86 324.34 224.59 188.5 272.67 6.5" style="fill:#2c393f;"></polygon><polygon points="226.68 180.59 461.95 316.42 459.86 324.34 224.59 188.5 226.68 180.59" style="fill:#d2d2da;"></polygon><polygon points="254.29 164.1 275.2 176.31 274.24 179.59 253.33 167.39 254.29 164.1" style="fill:#00c7c7;"></polygon><polygon points="278.55 178.28 289.95 184.93 288.99 188.22 277.6 181.57 278.55 178.28" style="fill:#00c7c7;"></polygon><polygon points="307.67 195.29 315.91 200.11 314.95 203.39 306.71 198.58 307.67 195.29" style="fill:#00c7c7;"></polygon><polygon points="301.65 191.79 304.47 193.43 303.51 196.72 300.7 195.07 301.65 191.79" style="fill:#00c7c7;"></polygon><polygon points="293.35 186.93 298.46 189.92 297.5 193.21 292.39 190.22 293.35 186.93" style="fill:#00c7c7;"></polygon><polygon points="278.01 160.38 286.25 165.2 285.3 168.48 277.05 163.67 278.01 160.38" style="fill:#00c7c7;"></polygon><polygon points="258.67 149.09 274.82 158.52 273.86 161.8 257.71 152.37 258.67 149.09" style="fill:#00c7c7;"></polygon><polygon points="299.75 129.21 315.9 138.64 314.94 141.93 298.79 132.5 299.75 129.21" style="fill:#e8a200;"></polygon><polygon points="291.44 124.36 296.55 127.35 295.59 130.63 290.48 127.64 291.44 124.36" style="fill:#e8a200;"></polygon><polygon points="295.28 144.13 311.43 153.56 310.47 156.85 294.32 147.42 295.28 144.13" style="fill:#00c7c7;"></polygon><polygon points="286.97 139.28 292.08 142.27 291.13 145.55 286.01 142.57 286.97 139.28" style="fill:#00c7c7;"></polygon><polygon points="318.81 64.53 288.38 46.76 289.34 43.48 319.76 61.24 318.81 64.53" style="fill:#00c7c7;"></polygon><polygon points="329.53 70.79 322 66.39 322.96 63.11 330.49 67.5 329.53 70.79" style="fill:#00c7c7;"></polygon><polygon points="372.2 122.11 341.77 104.35 342.73 101.06 373.16 118.83 372.2 122.11" style="fill:#00c7c7;"></polygon><polygon points="382.92 128.38 375.39 123.98 376.35 120.69 383.88 125.09 382.92 128.38" style="fill:#00c7c7;"></polygon><polygon points="294.44 59.08 286.19 54.27 287.15 50.98 295.39 55.8 294.44 59.08" style="fill:#e8a200;"></polygon><polygon points="337.4 101.75 329.15 96.94 330.11 93.66 338.36 98.47 337.4 101.75" style="fill:#00c7c7;"></polygon><polygon points="313.78 70.38 297.63 60.95 298.59 57.66 314.74 67.09 313.78 70.38" style="fill:#e8a200;"></polygon><polygon points="322.09 75.23 316.97 72.24 317.93 68.96 323.05 71.94 322.09 75.23" style="fill:#e8a200;"></polygon><polygon points="341.57 86.62 325.42 77.19 326.38 73.91 342.53 83.34 341.57 86.62" style="fill:#e8a200;"></polygon><polygon points="349.88 91.48 344.77 88.49 345.73 85.2 350.84 88.19 349.88 91.48" style="fill:#e8a200;"></polygon><polygon points="339.59 94.25 331.34 89.43 332.3 86.15 340.55 90.96 339.59 94.25" style="fill:#00c7c7;"></polygon><polygon points="358.93 105.54 342.78 96.11 343.74 92.82 359.89 102.26 358.93 105.54" style="fill:#00c7c7;"></polygon><polygon points="367.24 110.39 362.13 107.41 363.08 104.12 368.2 107.11 367.24 110.39" style="fill:#00c7c7;"></polygon><polygon points="300.87 71.62 284.01 61.77 284.96 58.49 301.83 68.34 300.87 71.62" style="fill:#00c7c7;"></polygon><polygon points="316.26 80.61 304.06 73.49 305.02 70.2 317.22 77.32 316.26 80.61" style="fill:#00c7c7;"></polygon><polygon points="327.7 87.29 319.45 82.47 320.41 79.19 328.66 84 327.7 87.29" style="fill:#00c7c7;"></polygon><polygon points="404.01 140.72 387.14 130.88 388.1 127.59 404.96 137.44 404.01 140.72" style="fill:#00c7c7;"></polygon><polygon points="419.4 149.71 407.2 142.59 408.16 139.3 420.36 146.42 419.4 149.71" style="fill:#00c7c7;"></polygon><polygon points="430.83 156.39 422.59 151.58 423.55 148.29 431.79 153.1 430.83 156.39" style="fill:#00c7c7;"></polygon><polygon points="355.71 214.59 372.58 224.44 371.62 227.72 354.75 217.88 355.71 214.59" style="fill:#00c7c7;"></polygon><polygon points="340.32 205.6 352.52 212.73 351.56 216.01 339.36 208.89 340.32 205.6" style="fill:#00c7c7;"></polygon><polygon points="328.88 198.93 337.13 203.74 336.17 207.03 327.93 202.21 328.88 198.93" style="fill:#00c7c7;"></polygon><polygon points="346.51 218.03 363.37 227.88 362.42 231.17 345.55 221.32 346.51 218.03" style="fill:#00c7c7;"></polygon><polygon points="331.12 209.05 343.32 216.17 342.36 219.46 330.16 212.33 331.12 209.05" style="fill:#00c7c7;"></polygon><polygon points="319.68 202.37 327.93 207.18 326.97 210.47 318.72 205.66 319.68 202.37" style="fill:#00c7c7;"></polygon><polygon points="299.98 138.09 305.68 141.41 304.72 144.7 299.02 141.37 299.98 138.09" style="fill:#e8a200;"></polygon><polygon points="289.26 131.83 296.79 136.22 295.83 139.51 288.3 135.11 289.26 131.83" style="fill:#e8a200;"></polygon><polygon points="298.78 79.2 281.92 69.35 282.88 66.07 299.74 75.91 298.78 79.2" style="fill:#00c7c7;"></polygon><polygon points="314.18 88.19 301.98 81.07 302.94 77.78 315.13 84.9 314.18 88.19" style="fill:#00c7c7;"></polygon><polygon points="325.61 94.87 317.37 90.05 318.33 86.77 326.57 91.58 325.61 94.87" style="fill:#00c7c7;"></polygon><polygon points="285.43 80.18 279.73 76.86 280.69 73.57 286.39 76.9 285.43 80.18" style="fill:#00c7c7;"></polygon><polygon points="296.15 86.44 288.62 82.05 289.58 78.76 297.11 83.16 296.15 86.44" style="fill:#00c7c7;"></polygon><polygon points="311.47 95.39 299.34 88.31 300.3 85.02 312.43 92.11 311.47 95.39" style="fill:#00c7c7;"></polygon><polygon points="296.95 162.7 302.64 166.03 301.69 169.32 295.99 165.99 296.95 162.7" style="fill:#e8a200;"></polygon><polygon points="286.23 156.44 293.75 160.84 292.79 164.13 285.27 159.73 286.23 156.44" style="fill:#e8a200;"></polygon><polygon points="270.9 147.5 283.03 154.58 282.07 157.86 269.94 150.78 270.9 147.5" style="fill:#e8a200;"></polygon><polygon points="308.96 161.56 321.08 168.64 320.13 171.93 308 164.85 308.96 161.56" style="fill:#e8a200;"></polygon><polygon points="289.37 149.5 305.72 159.05 304.76 162.33 288.42 152.79 289.37 149.5" style="fill:#e8a200;"></polygon><polygon points="281.07 144.65 286.18 147.64 285.22 150.92 280.11 147.93 281.07 144.65" style="fill:#e8a200;"></polygon><polygon points="273.09 139.99 278.21 142.98 277.25 146.26 272.13 143.28 273.09 139.99" style="fill:#e8a200;"></polygon><polygon points="292.42 106.67 308.57 116.1 307.61 119.38 291.46 109.95 292.42 106.67" style="fill:#e8a200;"></polygon><polygon points="284.11 101.82 289.22 104.8 288.26 108.09 283.15 105.1 284.11 101.82" style="fill:#e8a200;"></polygon><polygon points="297.12 100.62 302.81 103.95 301.86 107.24 296.16 103.91 297.12 100.62" style="fill:#e8a200;"></polygon><polygon points="310.03 125.79 315.72 129.11 314.76 132.4 309.07 129.07 310.03 125.79" style="fill:#e8a200;"></polygon><polygon points="318.14 130.53 331.81 138.52 330.85 141.8 317.19 133.82 318.14 130.53" style="fill:#e8a200;"></polygon><polygon points="334.23 139.94 342.36 144.69 341.4 147.97 333.27 143.22 334.23 139.94" style="fill:#e8a200;"></polygon><polygon points="286.4 94.36 293.92 98.76 292.97 102.04 285.44 97.65 286.4 94.36" style="fill:#e8a200;"></polygon><polygon points="289.21 87.39 294.9 90.71 293.95 94 288.25 90.67 289.21 87.39" style="fill:#00c7c7;"></polygon><polygon points="278.49 81.13 286.01 85.52 285.06 88.81 277.53 84.41 278.49 81.13" style="fill:#00c7c7;"></polygon><polygon points="301.76 120.96 306.88 123.94 305.92 127.23 300.8 124.24 301.76 120.96" style="fill:#e8a200;"></polygon><polygon points="293.79 116.3 298.9 119.29 297.95 122.57 292.83 119.59 293.79 116.3" style="fill:#e8a200;"></polygon><polygon points="307.69 186.55 325.14 196.74 324.18 200.02 306.73 189.83 307.69 186.55" style="fill:#00c7c7;"></polygon><polygon points="288.15 175.14 304.49 184.68 303.54 187.97 287.19 178.42 288.15 175.14" style="fill:#00c7c7;"></polygon><polygon points="279.84 170.29 284.95 173.27 283.99 176.56 278.88 173.57 279.84 170.29" style="fill:#00c7c7;"></polygon><polygon points="271.86 165.63 276.98 168.62 276.02 171.9 270.9 168.92 271.86 165.63" style="fill:#00c7c7;"></polygon><polygon points="267.5 163.08 256.47 156.64 255.51 159.92 266.54 166.37 267.5 163.08" style="fill:#00c7c7;"></polygon><polygon points="323.15 27.06 323.15 253 421.53 309.78 421.53 83.85 323.15 27.06" style="fill:#fff; opacity:.19;"></polygon><path d="m58.02,299.23v-.08s0-8.67,0-8.67l7.11.85,140.99-81.4c4.5-2.6,11.75-2.59,16.21,0l216.6,125.87,14.83,1.76v9.37s-.02,0-.02,0c.1,1.78-1.02,3.57-3.37,4.93l-143.47,82.83c-6.15,3.55-16.09,3.55-22.2,0L62.58,305.62c-2.96-1.72-4.47-3.96-4.54-6.22h-.01v-.17Z" style="fill:#c4c8d8;"></path><path d="m62.65,284.14c-6.15,3.55-6.18,9.31-.07,12.86l222.13,129.09c6.12,3.55,16.05,3.55,22.2,0l143.47-82.83c4.5-2.6,4.52-6.8.05-9.39l-228.09-132.55c-4.46-2.59-11.72-2.6-16.21,0l-143.47,82.83h0Z" style="fill:#eff0f5;"></path><path d="m122.08,262.14l222.99,129.59c2.95,1.71,7.75,1.71,10.72,0l84.63-48.86c2.97-1.71,2.98-4.49.03-6.21l-222.99-129.59c-2.95-1.71-7.75-1.71-10.72,0l-84.63,48.86c-2.97,1.71-2.99,4.49-.04,6.21Z" style="fill:#e1e3eb;"></path><path d="m132.9,326.38l42.08-24.3c2.46-1.42,6.45-1.42,8.89,0l92.44,53.72c2.45,1.42,2.43,3.73-.03,5.15l-42.08,24.3c-2.46,1.42-6.45,1.42-8.89,0l-92.44-53.72c-2.45-1.42-2.43-3.73.03-5.15h0Z" style="fill:#d9dbe6;"></path><path d="m276.32,357.1l-92.44-53.72c-2.45-1.42-6.43-1.42-8.89,0l-42.08,24.3c-.96.55-1.53,1.24-1.75,1.95-.36-1.14.22-2.36,1.75-3.24l42.08-24.3c2.46-1.42,6.45-1.42,8.89,0l92.44,53.72c1.5.87,2.06,2.07,1.72,3.2-.22-.7-.79-1.37-1.72-1.91Z" style="fill:#c5c9d8;"></path><path d="m402.55,344.72v-1.21s.99,0,.99,0l10.14-5.86c1.04-.6,2.72-.6,3.75,0l10.18,5.91h.88v1.15s0,0,0,0v.07h-.01c-.03.37-.28.73-.77,1.01l-10.35,5.98c-1.04.6-2.72.6-3.75,0l-10.29-5.98c-.52-.3-.77-.69-.77-1.09Z" style="fill:#393842;"></path><path d="m337.22,382.43v-1.21s.99,0,.99,0l10.14-5.86c1.04-.6,2.72-.6,3.75,0l10.18,5.91h.88v1.15s0,0,0,0v.07s-.01,0-.01,0c-.03.37-.28.73-.77,1.01l-10.35,5.98c-1.04.6-2.72.6-3.75,0l-10.29-5.98c-.52-.3-.77-.69-.77-1.09Z" style="fill:#393842;"></path><path d="m304.98,363.7v-1.21s.99,0,.99,0l10.14-5.86c1.04-.6,2.72-.6,3.75,0l10.18,5.91h.88v1.15s0,0,0,0v.07s-.01,0-.01,0c-.03.37-.28.73-.77,1.01l-10.35,5.98c-1.04.6-2.72.6-3.75,0l-10.29-5.98c-.52-.3-.77-.69-.77-1.09Z" style="fill:#393842;"></path><path d="m288.86,354.33v-1.21s.99,0,.99,0l10.14-5.86c1.04-.6,2.72-.6,3.75,0l10.18,5.91h.88v1.15s0,0,0,0v.07h-.01c-.03.37-.28.73-.77,1.01l-10.35,5.98c-1.04.6-2.72.6-3.75,0l-10.29-5.98c-.52-.3-.77-.69-.77-1.09Z" style="fill:#393842;"></path><path d="m386.43,335.35v-1.21s.99,0,.99,0l10.14-5.86c1.04-.6,2.72-.6,3.75,0l10.18,5.91h.88v1.15s0,0,0,0v.07s-.01,0-.01,0c-.03.37-.28.73-.77,1.01l-10.35,5.98c-1.04.6-2.72.6-3.75,0l-10.29-5.98c-.52-.3-.77-.69-.77-1.09Z" style="fill:#393842;"></path><path d="m361.1,339.42v-1.21s.99,0,.99,0l10.14-5.86c1.04-.6,2.72-.6,3.75,0l10.18,5.91h.88v1.15s0,0,0,0v.07h-.01c-.03.37-.28.73-.77,1.01l-10.35,5.98c-1.04.6-2.72.6-3.75,0l-10.29-5.98c-.52-.3-.77-.69-.77-1.09Z" style="fill:#393842;"></path><path d="m344.98,330.05v-1.21s.99,0,.99,0l10.14-5.86c1.04-.6,2.72-.6,3.75,0l10.18,5.91h.88v1.15s0,0,0,0v.07h-.01c-.03.37-.28.73-.77,1.01l-10.35,5.98c-1.04.6-2.72.6-3.75,0l-10.29-5.98c-.52-.3-.77-.69-.77-1.09Z" style="fill:#393842;"></path><path d="m336.6,344.23v-1.21s.99,0,.99,0l10.14-5.86c1.04-.6,2.72-.6,3.75,0l10.18,5.91h.88v1.15s0,0,0,0v.07h-.01c-.03.37-.28.73-.77,1.01l-10.35,5.98c-1.04.6-2.72.6-3.75,0l-10.29-5.98c-.52-.3-.77-.69-.77-1.09Z" style="fill:#393842;"></path><path d="m320.16,353.72v-1.21s.99,0,.99,0l10.14-5.86c1.04-.6,2.72-.6,3.75,0l10.18,5.91h.88v1.15s0,0,0,0v.07s-.01,0-.01,0c-.03.37-.28.73-.77,1.01l-10.35,5.98c-1.04.6-2.72.6-3.75,0l-10.29-5.98c-.52-.3-.77-.69-.77-1.09Z" style="fill:#393842;"></path><path d="m304.04,344.35v-1.21s.99,0,.99,0l10.14-5.86c1.04-.6,2.72-.6,3.75,0l10.18,5.91h.88v1.15s0,0,0,0v.07h-.01c-.03.37-.28.73-.77,1.01l-10.35,5.98c-1.04.6-2.72.6-3.75,0l-10.29-5.98c-.52-.3-.77-.69-.77-1.09Z" style="fill:#393842;"></path><path d="m287.92,334.99v-1.21s.99,0,.99,0l10.14-5.86c1.04-.6,2.72-.6,3.75,0l10.18,5.91h.88v1.15s0,0,0,0v.07h-.01c-.03.37-.28.73-.77,1.01l-10.35,5.98c-1.04.6-2.72.6-3.75,0l-10.29-5.98c-.51-.3-.77-.69-.77-1.09Z" style="fill:#393842;"></path><path d="m271.8,325.62v-1.21s.99,0,.99,0l10.14-5.86c1.04-.6,2.72-.6,3.75,0l10.18,5.91h.88v1.15s0,0,0,0v.07h-.01c-.03.37-.28.73-.77,1.01l-10.35,5.98c-1.04.6-2.72.6-3.75,0l-10.29-5.98c-.52-.3-.77-.69-.77-1.09Z" style="fill:#393842;"></path><path d="m255.68,316.25v-1.21s.99,0,.99,0l10.14-5.86c1.04-.6,2.72-.6,3.75,0l10.18,5.91h.88v1.15s0,0,0,0v.07s-.01,0-.01,0c-.03.37-.28.73-.77,1.01l-10.35,5.98c-1.04.6-2.72.6-3.75,0l-10.29-5.98c-.52-.3-.77-.69-.77-1.09Z" style="fill:#393842;"></path><path d="m239.56,306.88v-1.21s.99,0,.99,0l10.14-5.86c1.04-.6,2.72-.6,3.75,0l10.18,5.91h.88v1.15s0,0,0,0v.07s-.01,0-.01,0c-.03.37-.28.73-.77,1.01l-10.35,5.98c-1.04.6-2.72.6-3.75,0l-10.29-5.98c-.52-.3-.77-.69-.77-1.09Z" style="fill:#393842;"></path><path d="m223.44,297.51v-1.21s.99,0,.99,0l10.14-5.86c1.04-.6,2.72-.6,3.75,0l10.18,5.91h.88v1.15s0,0,0,0v.07s-.01,0-.01,0c-.03.37-.28.73-.77,1.01l-10.35,5.98c-1.04.6-2.72.6-3.75,0l-10.29-5.98c-.52-.3-.77-.69-.77-1.09Z" style="fill:#393842;"></path><path d="m207.32,288.15v-1.21s.99,0,.99,0l10.14-5.86c1.04-.6,2.72-.6,3.75,0l10.18,5.91h.88v1.15s0,0,0,0v.07h-.01c-.03.37-.28.73-.77,1.01l-10.35,5.98c-1.04.6-2.72.6-3.75,0l-10.29-5.98c-.52-.3-.77-.69-.77-1.09Z" style="fill:#393842;"></path><path d="m191.2,278.78v-1.21s.99,0,.99,0l10.14-5.86c1.04-.6,2.72-.6,3.75,0l10.18,5.91h.88v1.15s0,0,0,0v.07h-.01c-.03.37-.28.73-.77,1.01l-10.35,5.98c-1.04.6-2.72.6-3.75,0l-10.29-5.98c-.52-.3-.77-.69-.77-1.09Z" style="fill:#393842;"></path><path d="m173.94,287.54v-1.21s.99,0,.99,0l10.14-5.86c1.04-.6,2.72-.6,3.75,0l10.18,5.91h.88v1.15s0,0,0,0v.07s-.01,0-.01,0c-.03.37-.28.73-.77,1.01l-10.35,5.98c-1.04.6-2.72.6-3.75,0l-10.29-5.98c-.52-.3-.77-.69-.77-1.09Z" style="fill:#393842;"></path><path d="m157.82,278.17v-1.21s.99,0,.99,0l10.14-5.86c1.04-.6,2.72-.6,3.75,0l10.18,5.91h.88v1.15s0,0,0,0v.07h-.01c-.03.37-.28.73-.77,1.01l-10.35,5.98c-1.04.6-2.72.6-3.75,0l-10.29-5.98c-.52-.3-.77-.69-.77-1.09Z" style="fill:#393842;"></path><path d="m125.18,259.21v-1.21s.99,0,.99,0l10.14-5.86c1.04-.6,2.72-.6,3.75,0l10.18,5.91h.88v1.15s0,0,0,0v.07h-.01c-.03.37-.28.73-.77,1.01l-10.35,5.98c-1.04.6-2.72.6-3.75,0l-10.29-5.98c-.52-.3-.77-.69-.77-1.09Z" style="fill:#393842;"></path><path d="m142.39,248.63l10.14-5.86c1.04-.6,2.72-.6,3.75,0l1.44.84h0l8.74,5.08h.88v.51l.56.32h.88v1.15s0,0,0,0v.07s-.01,0-.01,0c-.03.37-.28.73-.77,1.01l-10.35,5.98c-1.04.6-2.72.6-3.75,0l-11.73-6.82c-.51-.3-.77-.69-.77-1.09v-1.21s.99,0,.99,0Z" style="fill:#393842;"></path><path d="m175.08,269.41v-1.21s.99,0,.99,0l10.14-5.86c1.04-.6,2.72-.6,3.75,0l10.18,5.91h.88v1.15s0,0,0,0v.07h-.01c-.03.37-.28.73-.77,1.01l-10.35,5.98c-1.04.6-2.72.6-3.75,0l-10.29-5.98c-.52-.3-.77-.69-.77-1.09Z" style="fill:#393842;"></path><path d="m158.96,260.04v-1.21s.99,0,.99,0l10.14-5.86c1.04-.6,2.72-.6,3.75,0l10.18,5.91h.88v1.15s0,0,0,0v.07s-.01,0-.01,0c-.03.37-.28.73-.77,1.01l-10.35,5.98c-1.04.6-2.72.6-3.75,0l-10.29-5.98c-.52-.3-.77-.69-.77-1.09Z" style="fill:#393842;"></path><path d="m320.48,334.86v-1.21s.99,0,.99,0l10.14-5.86c1.04-.6,2.72-.6,3.75,0l10.18,5.91h.88v1.15s0,0,0,0v.07h-.01c-.03.37-.28.73-.77,1.01l-10.35,5.98c-1.04.6-2.72.6-3.75,0l-10.29-5.98c-.52-.3-.77-.69-.77-1.09Z" style="fill:#393842;"></path><path d="m304.36,325.49v-1.21s.99,0,.99,0l10.14-5.86c1.04-.6,2.72-.6,3.75,0l10.18,5.91h.88v1.15s0,0,0,0v.07s-.01,0-.01,0c-.03.37-.28.73-.77,1.01l-10.35,5.98c-1.04.6-2.72.6-3.75,0l-10.29-5.98c-.52-.3-.77-.69-.77-1.09Z" style="fill:#393842;"></path><path d="m288.24,316.12v-1.21s.99,0,.99,0l10.14-5.86c1.04-.6,2.72-.6,3.75,0l10.18,5.91h.88v1.15s0,0,0,0v.07h-.01c-.03.37-.28.73-.77,1.01l-10.35,5.98c-1.04.6-2.72.6-3.75,0l-10.29-5.98c-.52-.3-.77-.69-.77-1.09Z" style="fill:#393842;"></path><path d="m272.12,306.76v-1.21s.99,0,.99,0l10.14-5.86c1.04-.6,2.72-.6,3.75,0l10.18,5.91h.88v1.15s0,0,0,0v.07s-.01,0-.01,0c-.03.37-.28.73-.77,1.01l-10.35,5.98c-1.04.6-2.72.6-3.75,0l-10.29-5.98c-.52-.3-.77-.69-.77-1.09Z" style="fill:#393842;"></path><path d="m256,297.39v-1.21s.99,0,.99,0l10.14-5.86c1.04-.6,2.72-.6,3.75,0l10.18,5.91h.88v1.15s0,0,0,0v.07h-.01c-.03.37-.28.73-.77,1.01l-10.35,5.98c-1.04.6-2.72.6-3.75,0l-10.29-5.98c-.51-.3-.77-.69-.77-1.09Z" style="fill:#393842;"></path><path d="m239.88,288.02v-1.21s.99,0,.99,0l10.14-5.86c1.04-.6,2.72-.6,3.75,0l10.18,5.91h.88v1.15s0,0,0,0v.07s-.01,0-.01,0c-.03.37-.28.73-.77,1.01l-10.35,5.98c-1.04.6-2.72.6-3.75,0l-10.29-5.98c-.52-.3-.77-.69-.77-1.09Z" style="fill:#393842;"></path><path d="m223.76,278.65v-1.21s.99,0,.99,0l10.14-5.86c1.04-.6,2.72-.6,3.75,0l10.18,5.91h.88v1.15s0,0,0,0v.07h-.01c-.03.37-.28.73-.77,1.01l-10.35,5.98c-1.04.6-2.72.6-3.75,0l-10.29-5.98c-.52-.3-.77-.69-.77-1.09Z" style="fill:#393842;"></path><path d="m207.65,269.29v-1.21s.99,0,.99,0l10.14-5.86c1.04-.6,2.72-.6,3.75,0l10.18,5.91h.88v1.15s0,0,0,0v.07s-.01,0-.01,0c-.03.37-.28.73-.77,1.01l-10.35,5.98c-1.04.6-2.72.6-3.75,0l-10.29-5.98c-.52-.3-.77-.69-.77-1.09Z" style="fill:#393842;"></path><path d="m191.53,259.92v-1.21s.99,0,.99,0l10.14-5.86c1.04-.6,2.72-.6,3.75,0l10.18,5.91h.88v1.15s0,0,0,0v.07h-.01c-.03.37-.28.73-.77,1.01l-10.35,5.98c-1.04.6-2.72.6-3.75,0l-10.29-5.98c-.52-.3-.77-.69-.77-1.09Z" style="fill:#393842;"></path><path d="m328.86,320.69v-1.21s.99,0,.99,0l10.14-5.86c1.04-.6,2.72-.6,3.75,0l10.18,5.91h.88v1.15s0,0,0,0v.07h-.01c-.03.37-.28.73-.77,1.01l-10.35,5.98c-1.04.6-2.72.6-3.75,0l-10.29-5.98c-.52-.3-.77-.69-.77-1.09Z" style="fill:#393842;"></path><path d="m312.74,311.32v-1.21s.99,0,.99,0l10.14-5.86c1.04-.6,2.72-.6,3.75,0l10.18,5.91h.88v1.15s0,0,0,0v.07h-.01c-.03.37-.28.73-.77,1.01l-10.35,5.98c-1.04.6-2.72.6-3.75,0l-10.29-5.98c-.51-.3-.77-.69-.77-1.09Z" style="fill:#393842;"></path><path d="m296.62,301.95v-1.21s.99,0,.99,0l10.14-5.86c1.04-.6,2.72-.6,3.75,0l10.18,5.91h.88v1.15s0,0,0,0v.07h-.01c-.03.37-.28.73-.77,1.01l-10.35,5.98c-1.04.6-2.72.6-3.75,0l-10.29-5.98c-.52-.3-.77-.69-.77-1.09Z" style="fill:#393842;"></path><path d="m280.5,292.58v-1.21s.99,0,.99,0l10.14-5.86c1.04-.6,2.72-.6,3.75,0l10.18,5.91h.88v1.15s0,0,0,0v.07h-.01c-.03.37-.28.73-.77,1.01l-10.35,5.98c-1.04.6-2.72.6-3.75,0l-10.29-5.98c-.52-.3-.77-.69-.77-1.09Z" style="fill:#393842;"></path><path d="m264.38,283.22v-1.21s.99,0,.99,0l10.14-5.86c1.04-.6,2.72-.6,3.75,0l10.18,5.91h.88v1.15s0,0,0,0v.07h-.01c-.03.37-.28.73-.77,1.01l-10.35,5.98c-1.04.6-2.72.6-3.75,0l-10.29-5.98c-.52-.3-.77-.69-.77-1.09Z" style="fill:#393842;"></path><path d="m248.26,273.85v-1.21s.99,0,.99,0l10.14-5.86c1.04-.6,2.72-.6,3.75,0l10.18,5.91h.88v1.15s0,0,0,0v.07s-.01,0-.01,0c-.03.37-.28.73-.77,1.01l-10.35,5.98c-1.04.6-2.72.6-3.75,0l-10.29-5.98c-.52-.3-.77-.69-.77-1.09Z" style="fill:#393842;"></path><path d="m232.14,264.48v-1.21s.99,0,.99,0l10.14-5.86c1.04-.6,2.72-.6,3.75,0l10.18,5.91h.88v1.15s0,0,0,0v.07h-.01c-.03.37-.28.73-.77,1.01l-10.35,5.98c-1.04.6-2.72.6-3.75,0l-10.29-5.98c-.52-.3-.77-.69-.77-1.09Z" style="fill:#393842;"></path><path d="m216.02,255.11v-1.21s.99,0,.99,0l10.14-5.86c1.04-.6,2.72-.6,3.75,0l10.18,5.91h.88v1.15s0,0,0,0v.07s-.01,0-.01,0c-.03.37-.28.73-.77,1.01l-10.35,5.98c-1.04.6-2.72.6-3.75,0l-10.29-5.98c-.52-.3-.77-.69-.77-1.09Z" style="fill:#393842;"></path><path d="m199.9,245.74v-1.21s.99,0,.99,0l10.14-5.86c1.04-.6,2.72-.6,3.75,0l10.18,5.91h.88v1.15s0,0,0,0v.07h-.01c-.03.37-.28.73-.77,1.01l-10.35,5.98c-1.04.6-2.72.6-3.75,0l-10.29-5.98c-.52-.3-.77-.69-.77-1.09Z" style="fill:#393842;"></path><path d="m370.31,325.98v-1.21s.99,0,.99,0l10.14-5.86c1.04-.6,2.72-.6,3.75,0l10.18,5.91h.88v1.15s0,0,0,0v.07h-.01c-.03.37-.28.73-.77,1.01l-10.35,5.98c-1.04.6-2.72.6-3.75,0l-10.29-5.98c-.52-.3-.77-.69-.77-1.09Z" style="fill:#393842;"></path><path d="m354.19,316.61v-1.21s.99,0,.99,0l10.14-5.86c1.04-.6,2.72-.6,3.75,0l10.18,5.91h.88v1.15s0,0,0,0v.07h-.01c-.03.37-.28.73-.77,1.01l-10.35,5.98c-1.04.6-2.72.6-3.75,0l-10.29-5.98c-.52-.3-.77-.69-.77-1.09Z" style="fill:#393842;"></path><path d="m338.07,307.24v-1.21s.99,0,.99,0l10.14-5.86c1.04-.6,2.72-.6,3.75,0l10.18,5.91h.88v1.15s0,0,0,0v.07s-.01,0-.01,0c-.03.37-.28.73-.77,1.01l-10.35,5.98c-1.04.6-2.72.6-3.75,0l-10.29-5.98c-.52-.3-.77-.69-.77-1.09Z" style="fill:#393842;"></path><path d="m321.95,297.88v-1.21s.99,0,.99,0l10.14-5.86c1.04-.6,2.72-.6,3.75,0l10.18,5.91h.88v1.15s0,0,0,0v.07h-.01c-.03.37-.28.73-.77,1.01l-10.35,5.98c-1.04.6-2.72.6-3.75,0l-10.29-5.98c-.52-.3-.77-.69-.77-1.09Z" style="fill:#393842;"></path><path d="m305.83,288.51v-1.21s.99,0,.99,0l10.14-5.86c1.04-.6,2.72-.6,3.75,0l10.18,5.91h.88v1.15s0,0,0,0v.07s-.01,0-.01,0c-.03.37-.28.73-.77,1.01l-10.35,5.98c-1.04.6-2.72.6-3.75,0l-10.29-5.98c-.52-.3-.77-.69-.77-1.09Z" style="fill:#393842;"></path><path d="m289.71,279.14v-1.21s.99,0,.99,0l10.14-5.86c1.04-.6,2.72-.6,3.75,0l10.18,5.91h.88v1.15s0,0,0,0v.07h-.01c-.03.37-.28.73-.77,1.01l-10.35,5.98c-1.04.6-2.72.6-3.75,0l-10.29-5.98c-.52-.3-.77-.69-.77-1.09Z" style="fill:#393842;"></path><path d="m273.6,269.77v-1.21s.99,0,.99,0l10.14-5.86c1.04-.6,2.72-.6,3.75,0l10.18,5.91h.88v1.15s0,0,0,0v.07h-.01c-.03.37-.28.73-.77,1.01l-10.35,5.98c-1.04.6-2.72.6-3.75,0l-10.29-5.98c-.51-.3-.77-.69-.77-1.09Z" style="fill:#393842;"></path><path d="m257.48,260.41v-1.21s.99,0,.99,0l10.14-5.86c1.04-.6,2.72-.6,3.75,0l10.18,5.91h.88v1.15s0,0,0,0v.07s-.01,0-.01,0c-.03.37-.28.73-.77,1.01l-10.35,5.98c-1.04.6-2.72.6-3.75,0l-10.29-5.98c-.52-.3-.77-.69-.77-1.09Z" style="fill:#393842;"></path><path d="m241.36,251.04v-1.21s.99,0,.99,0l10.14-5.86c1.04-.6,2.72-.6,3.75,0l10.18,5.91h.88v1.15s0,0,0,0v.07h-.01c-.03.37-.28.73-.77,1.01l-10.35,5.98c-1.04.6-2.72.6-3.75,0l-10.29-5.98c-.52-.3-.77-.69-.77-1.09Z" style="fill:#393842;"></path><path d="m225.24,241.67v-1.21s.99,0,.99,0l10.14-5.86c1.04-.6,2.72-.6,3.75,0l10.18,5.91h.88v1.15s0,0,0,0v.07s-.01,0-.01,0c-.03.37-.28.73-.77,1.01l-10.35,5.98c-1.04.6-2.72.6-3.75,0l-10.29-5.98c-.52-.3-.77-.69-.77-1.09Z" style="fill:#393842;"></path><path d="m209.12,232.3v-1.21s.99,0,.99,0l10.14-5.86c1.04-.6,2.72-.6,3.75,0l10.18,5.91h.88v1.15s0,0,0,0v.07h-.01c-.03.37-.28.73-.77,1.01l-10.35,5.98c-1.04.6-2.72.6-3.75,0l-10.29-5.98c-.52-.3-.77-.69-.77-1.09Z" style="fill:#393842;"></path><path d="m190.51,220.22l1.01.06,10.12-5.84c1.04-.6,2.72-.6,3.75,0l12.52,7.28,1.02.06v1.1c0,.05,0,.1-.01.15v.06s-.01,0-.01,0c-.05.35-.3.68-.76.95l-10.35,5.98c-1.04.6-2.72.6-3.76,0l-12.77-7.42c-.54-.31-.79-.73-.76-1.14h0v-1.22Z" style="fill:#393842;"></path><path d="m190.05,296.87v-1.17s.98,0,.98,0l10.15-5.86c.78-.45,1.92-.56,2.88-.33.32.07.62.19.87.34l10.18,5.91h.88v.51s71.63,41.63,71.63,41.63h0s10.18,5.91,10.18,5.91h.88v1.15s0,0,0,0v.07h-.01s0,.03,0,.04c0,.08-.02.15-.05.22,0,.02-.02.04-.03.06-.03.07-.07.14-.11.2-.03.04-.07.07-.1.11-.04.05-.08.09-.13.14-.09.08-.2.16-.32.23h0s-10.35,5.98-10.35,5.98c-.26.15-.56.26-.88.34-.32.08-.66.11-1,.11-.68,0-1.36-.15-1.87-.45l-10.29-5.98h0l-82.69-48.05c-.53-.31-.79-.72-.77-1.13Z" style="fill:#393842;"></path><path d="m400.17,324.55s0-.02,0-.03v-1.14s.66.16.66.16c.04-.03.07-.06.12-.08l2.79-1.61c1.04-.6,2.72-.61,3.75,0l9.52,5.53,1.53.36v1.23c-.04.37-.29.74-.79,1.03l-2.79,1.61c-1.04.6-2.72.61-3.75,0l-10.28-5.98c-.5-.29-.76-.68-.76-1.06h0Z" style="fill:#393842;"></path><path d="m384.05,315.19s0-.02,0-.03v-1.14s.67.16.67.16c.04-.03.07-.06.12-.08l2.79-1.61c1.04-.6,2.72-.61,3.75,0l9.52,5.53,1.53.36v1.23c-.04.37-.29.74-.79,1.03l-2.79,1.61c-1.04.6-2.72.61-3.75,0l-10.28-5.98c-.5-.29-.76-.68-.76-1.06h0Z" style="fill:#393842;"></path><path d="m367.93,305.82s0-.02,0-.03v-1.14s.66.16.66.16c.04-.03.07-.06.12-.08l2.79-1.61c1.04-.6,2.72-.61,3.75,0l9.52,5.53,1.53.36v1.23c-.04.37-.29.74-.79,1.03l-2.79,1.61c-1.04.6-2.72.61-3.75,0l-10.28-5.98c-.5-.29-.76-.68-.76-1.06h0Z" style="fill:#393842;"></path><path d="m351.81,296.45s0-.02,0-.03v-1.14s.67.16.67.16c.04-.03.07-.06.12-.08l2.79-1.61c1.04-.6,2.72-.61,3.75,0l9.52,5.53,1.53.36v1.23c-.04.37-.29.74-.79,1.03l-2.79,1.61c-1.04.6-2.72.61-3.75,0l-10.28-5.98c-.5-.29-.76-.68-.76-1.06h0Z" style="fill:#393842;"></path><path d="m335.69,287.08v-1.18s.67.16.67.16c.04-.03.07-.06.12-.08l2.79-1.61c1.04-.6,2.72-.61,3.75,0l9.52,5.53,1.53.36v1.23c-.04.37-.29.74-.79,1.03l-2.79,1.61c-1.04.6-2.72.61-3.75,0l-10.28-5.98c-.5-.29-.76-.68-.76-1.06h0Z" style="fill:#393842;"></path><path d="m319.57,277.72s0-.02,0-.03v-1.14s.67.16.67.16c.04-.03.07-.06.12-.08l2.79-1.61c1.04-.6,2.72-.61,3.75,0l9.52,5.53,1.53.36v1.23c-.04.37-.29.74-.79,1.03l-2.79,1.61c-1.04.6-2.72.61-3.75,0l-10.28-5.98c-.5-.29-.76-.68-.76-1.06h0Z" style="fill:#393842;"></path><path d="m303.45,268.35v-1.18s.67.16.67.16c.04-.03.07-.06.12-.08l2.79-1.61c1.04-.6,2.72-.61,3.75,0l9.52,5.53,1.53.36v1.23c-.04.37-.29.74-.79,1.03l-2.79,1.61c-1.04.6-2.72.61-3.75,0l-10.28-5.98c-.5-.29-.76-.67-.76-1.06h0Z" style="fill:#393842;"></path><path d="m287.33,258.98s0-.02,0-.03v-1.14s.67.16.67.16c.04-.03.07-.06.12-.08l2.79-1.61c1.04-.6,2.72-.61,3.75,0l9.52,5.53,1.53.36v1.23c-.04.37-.29.74-.79,1.03l-2.79,1.61c-1.04.6-2.72.61-3.75,0l-10.28-5.98c-.5-.29-.76-.67-.76-1.06h0Z" style="fill:#393842;"></path><path d="m271.21,249.61v-1.18s.67.16.67.16c.04-.03.07-.06.12-.08l2.79-1.61c1.04-.6,2.72-.61,3.75,0l9.52,5.53,1.53.36v1.23c-.04.37-.29.74-.79,1.03l-2.79,1.61c-1.04.6-2.72.61-3.75,0l-10.28-5.98c-.5-.29-.76-.67-.76-1.06h0Z" style="fill:#393842;"></path><path d="m255.09,240.24s0-.02,0-.03v-1.14s.67.16.67.16c.04-.03.07-.06.12-.08l2.79-1.61c1.04-.6,2.72-.61,3.75,0l9.52,5.53,1.53.36v1.23c-.04.37-.29.74-.79,1.03l-2.79,1.61c-1.04.6-2.72.61-3.75,0l-10.28-5.98c-.5-.29-.76-.67-.76-1.06h0Z" style="fill:#393842;"></path><path d="m238.97,230.88v-1.18s.67.16.67.16c.04-.03.07-.06.12-.08l2.79-1.61c1.04-.6,2.72-.61,3.75,0l9.52,5.53,1.53.36v1.23c-.04.37-.29.74-.79,1.03l-2.79,1.61c-1.04.6-2.72.61-3.75,0l-10.28-5.98c-.5-.29-.76-.67-.76-1.06h0Z" style="fill:#393842;"></path><path d="m222.85,221.51s0-.02,0-.03v-1.14s.67.16.67.16c.04-.03.07-.06.12-.08l2.79-1.61c1.04-.6,2.72-.61,3.75,0l9.52,5.53,1.53.36v1.23c-.04.37-.29.74-.79,1.03l-2.79,1.61c-1.04.6-2.72.61-3.75,0l-10.28-5.98c-.5-.29-.76-.67-.76-1.06h0Z" style="fill:#393842;"></path><path d="m206.73,212.14v-1.18s.67.16.67.16c.04-.03.07-.06.12-.08l2.79-1.61c1.04-.6,2.72-.61,3.75,0l9.52,5.53,1.53.36v1.23c-.04.37-.29.74-.79,1.03l-2.79,1.61c-1.04.6-2.72.61-3.75,0l-10.28-5.98c-.5-.29-.76-.67-.76-1.06h0Z" style="fill:#393842;"></path><path d="m377.11,347.69l.73.11s.03-.02.05-.03l10.36-5.98c1.03-.6,2.72-.6,3.75,0l19.12,11.11,1.05.16v1.1s0,.04,0,.04h0c-.02.37-.28.75-.77,1.03l-10.36,5.98c-1.03.6-2.72.6-3.75,0l-19.4-11.27c-.52-.3-.77-.69-.77-1.09h0v-1.16Z" style="fill:#393842;"></path><path d="m352.72,352.4l.71.17s.04-.03.07-.05l10.35-5.98c1.04-.6,2.72-.6,3.75,0l26.85,15.6,1.37.32v1.14s0,0,0,0c-.01.39-.27.77-.78,1.07l-10.35,5.98c-1.04.6-2.72.6-3.75,0l-27.46-15.96c-.52-.3-.77-.7-.77-1.09h0v-1.19Z" style="fill:#393842;"></path><path d="m336.28,361.89l.71.17s.04-.03.07-.05l10.35-5.98c1.04-.6,2.72-.6,3.75,0l26.85,15.6,1.37.32v1.14s0,0,0,0c-.01.39-.27.77-.78,1.07l-10.35,5.98c-1.04.6-2.72.6-3.75,0l-27.46-15.96c-.52-.3-.77-.7-.77-1.09h0v-1.19Z" style="fill:#393842;"></path><path d="m174.18,229.74l.75.12s.02-.01.03-.02l10.36-5.98c1.03-.6,2.72-.6,3.75,0l19.45,11.3,1.1.17v1.12s0,.05,0,.05h0c-.03.37-.28.74-.77,1.02l-10.36,5.98c-1.03.6-2.71.6-3.75,0l-19.78-11.5c-.52-.3-.78-.7-.77-1.1h0v-1.18Z" style="fill:#393842;"></path><path d="m158.62,239.26l10.35-5.98c1.04-.6,2.72-.6,3.76,0l27.84,16.18c1.03.6,1.02,1.57-.02,2.17l-10.35,5.98c-1.04.6-2.71.6-3.75,0l-27.84-16.18c-1.03-.6-1.04-1.57,0-2.17h0Z" style="fill:#393842;"></path><path d="m320.94,352.64l10.35-5.98c1.04-.6,2.72-.6,3.76,0l10.28,5.98c1.03.6,1.02,1.57-.02,2.17l-10.35,5.98c-1.04.6-2.72.6-3.75,0l-10.28-5.98c-1.03-.6-1.04-1.57,0-2.17h0Z" style="fill:#393842;"></path><path d="m416.29,333.86h0v-1.23s.75.21.75.21c.01,0,.02-.02.03-.02l2.79-1.61c1.04-.6,2.72-.61,3.75,0l11.86,6.89,1.69.48v1.27s-.02,0-.02,0c-.05.35-.3.7-.76.97l-2.79,1.61c-1.04.6-2.72.6-3.75,0l-12.78-7.43c-.54-.31-.79-.72-.76-1.13Z" style="fill:#393842;"></path><path d="m403.34,342.48l10.35-5.98c1.04-.6,2.72-.6,3.75,0l10.29,5.98c1.03.6,1.03,1.57-.01,2.17l-10.35,5.98c-1.04.6-2.72.6-3.75,0l-10.29-5.98c-1.03-.6-1.02-1.57.02-2.17h0Z" style="fill:#57565e;"></path><path d="m387.22,333.12l10.35-5.98c1.04-.6,2.72-.6,3.75,0l10.29,5.98c1.03.6,1.03,1.57-.01,2.17l-10.35,5.98c-1.04.6-2.72.6-3.75,0l-10.29-5.98c-1.03-.6-1.02-1.57.02-2.17h0Z" style="fill:#57565e;"></path><path d="m371.1,323.75l10.35-5.98c1.04-.6,2.72-.6,3.75,0l10.29,5.98c1.03.6,1.03,1.57-.01,2.17l-10.35,5.98c-1.04.6-2.72.6-3.75,0l-10.29-5.98c-1.03-.6-1.02-1.57.02-2.17h0Z" style="fill:#57565e;"></path><path d="m354.98,314.38l10.35-5.98c1.04-.6,2.72-.6,3.75,0l10.28,5.98c1.03.6,1.03,1.57-.01,2.17l-10.35,5.98c-1.04.6-2.72.6-3.75,0l-10.28-5.98c-1.03-.6-1.03-1.58.01-2.18h0Z" style="fill:#57565e;"></path><path d="m338.86,305.01l10.35-5.98c1.04-.6,2.72-.6,3.75,0l10.28,5.98c1.03.6,1.03,1.57-.01,2.17l-10.35,5.98c-1.04.6-2.72.6-3.75,0l-10.28-5.98c-1.03-.6-1.03-1.58.01-2.18h0Z" style="fill:#57565e;"></path><path d="m322.74,295.64l10.35-5.98c1.04-.6,2.72-.6,3.75,0l10.28,5.98c1.03.6,1.03,1.57-.01,2.17l-10.35,5.98c-1.04.6-2.72.61-3.75,0l-10.28-5.98c-1.03-.6-1.03-1.58.01-2.18h0Z" style="fill:#57565e;"></path><path d="m306.62,286.28l10.35-5.98c1.04-.6,2.72-.6,3.75,0l10.28,5.98c1.03.6,1.03,1.57-.01,2.17l-10.35,5.98c-1.04.6-2.72.61-3.75,0l-10.28-5.98c-1.03-.6-1.03-1.58.01-2.18h0Z" style="fill:#57565e;"></path><path d="m290.51,276.91l10.35-5.98c1.04-.6,2.71-.6,3.75,0l10.28,5.98c1.03.6,1.03,1.57-.01,2.17l-10.35,5.98c-1.04.6-2.72.61-3.75,0l-10.28-5.98c-1.03-.6-1.02-1.57.02-2.17h0Z" style="fill:#57565e;"></path><path d="m274.39,267.54l10.35-5.98c1.04-.6,2.71-.6,3.75,0l10.28,5.98c1.03.6,1.03,1.57-.01,2.17l-10.35,5.98c-1.04.6-2.72.61-3.75,0l-10.28-5.98c-1.03-.6-1.02-1.57.02-2.17h0Z" style="fill:#57565e;"></path><path d="m258.27,258.18l10.35-5.98c1.04-.6,2.71-.6,3.75,0l10.28,5.98c1.03.6,1.03,1.57-.01,2.17l-10.35,5.98c-1.04.6-2.72.61-3.75,0l-10.28-5.98c-1.03-.6-1.02-1.57.02-2.17h0Z" style="fill:#57565e;"></path><path d="m242.15,248.81l10.35-5.98c1.04-.6,2.71-.6,3.75,0l10.28,5.98c1.03.6,1.03,1.57-.01,2.17l-10.35,5.98c-1.04.6-2.72.61-3.75,0l-10.28-5.98c-1.03-.6-1.02-1.57.02-2.17h0Z" style="fill:#57565e;"></path><path d="m345.76,327.82l10.35-5.98c1.04-.6,2.72-.6,3.75,0l10.29,5.98c1.03.6,1.03,1.57-.01,2.17l-10.35,5.98c-1.04.6-2.72.6-3.75,0l-10.29-5.98c-1.03-.6-1.02-1.57.02-2.17h0Z" style="fill:#57565e;"></path><path d="m329.64,318.45l10.35-5.98c1.04-.6,2.72-.6,3.75,0l10.29,5.98c1.03.6,1.03,1.57-.01,2.17l-10.35,5.98c-1.04.6-2.72.6-3.75,0l-10.29-5.98c-1.03-.6-1.02-1.57.02-2.17h0Z" style="fill:#57565e;"></path><path d="m313.52,309.09l10.35-5.98c1.04-.6,2.72-.6,3.75,0l10.28,5.98c1.03.6,1.03,1.57-.01,2.17l-10.35,5.98c-1.04.6-2.72.6-3.75,0l-10.28-5.98c-1.03-.6-1.03-1.58.01-2.18h0Z" style="fill:#57565e;"></path><path d="m297.4,299.72l10.35-5.98c1.04-.6,2.72-.6,3.75,0l10.28,5.98c1.03.6,1.03,1.57-.01,2.17l-10.35,5.98c-1.04.6-2.72.6-3.75,0l-10.28-5.98c-1.03-.6-1.03-1.58.01-2.18h0Z" style="fill:#57565e;"></path><path d="m281.29,290.35l10.35-5.98c1.04-.6,2.72-.6,3.75,0l10.28,5.98c1.03.6,1.03,1.57-.01,2.17l-10.35,5.98c-1.04.6-2.72.61-3.75,0l-10.28-5.98c-1.03-.6-1.03-1.58.01-2.18h0Z" style="fill:#57565e;"></path><path d="m265.17,280.98l10.35-5.98c1.04-.6,2.72-.6,3.75,0l10.28,5.98c1.03.6,1.03,1.57-.01,2.17l-10.35,5.98c-1.04.6-2.72.61-3.75,0l-10.28-5.98c-1.03-.6-1.03-1.58.01-2.18h0Z" style="fill:#57565e;"></path><path d="m249.05,271.62l10.35-5.98c1.04-.6,2.71-.6,3.75,0l10.28,5.98c1.03.6,1.03,1.57-.01,2.17l-10.35,5.98c-1.04.6-2.72.61-3.75,0l-10.28-5.98c-1.03-.6-1.02-1.57.02-2.17h0Z" style="fill:#57565e;"></path><path d="m232.93,262.25l10.35-5.98c1.04-.6,2.71-.6,3.75,0l10.28,5.98c1.03.6,1.03,1.57-.01,2.17l-10.35,5.98c-1.04.6-2.72.61-3.75,0l-10.28-5.98c-1.03-.6-1.02-1.57.02-2.17h0Z" style="fill:#57565e;"></path><path d="m216.81,252.88l10.35-5.98c1.04-.6,2.71-.6,3.75,0l10.28,5.98c1.03.6,1.03,1.57-.01,2.17l-10.35,5.98c-1.04.6-2.72.61-3.75,0l-10.28-5.98c-1.03-.6-1.02-1.57.02-2.17h0Z" style="fill:#57565e;"></path><path d="m200.69,243.52l10.35-5.98c1.04-.6,2.71-.6,3.75,0l10.28,5.98c1.03.6,1.03,1.57-.01,2.17l-10.35,5.98c-1.04.6-2.72.61-3.75,0l-10.28-5.98c-1.03-.6-1.02-1.57.02-2.17h0Z" style="fill:#57565e;"></path><path d="m226.03,239.44l10.35-5.98c1.04-.6,2.71-.6,3.75,0l10.28,5.98c1.03.6,1.04,1.57,0,2.17l-10.35,5.98c-1.04.6-2.72.6-3.76,0l-10.28-5.98c-1.03-.6-1.02-1.57.02-2.17h0Z" style="fill:#57565e;"></path><path d="m209.91,230.07l10.35-5.98c1.04-.6,2.72-.6,3.75,0l10.28,5.98c1.03.6,1.04,1.57,0,2.17l-10.35,5.98c-1.04.6-2.72.6-3.76,0l-10.28-5.98c-1.03-.6-1.02-1.57.02-2.17h0Z" style="fill:#57565e;"></path><path d="m338.01,380.2l10.35-5.98c1.03-.6,2.72-.6,3.75,0l10.29,5.98c1.03.6,1.02,1.57-.01,2.17l-10.35,5.98c-1.04.6-2.72.6-3.75,0l-10.29-5.98c-1.03-.6-1.02-1.57.02-2.17h0Z" style="fill:#57565e;"></path><path d="m141.7,268.8v-1.21s.99,0,.99,0l10.14-5.86c1.04-.6,2.72-.6,3.75,0l10.18,5.91h.88v1.15s0,0,0,0v.07h-.01c-.03.37-.28.73-.77,1.01l-10.35,5.98c-1.04.6-2.72.6-3.75,0l-10.29-5.98c-.52-.3-.77-.69-.77-1.09Z" style="fill:#393842;"></path><path d="m142.48,266.57l10.35-5.98c1.03-.6,2.72-.6,3.75,0l10.29,5.98c1.03.6,1.02,1.57-.01,2.17l-10.35,5.98c-1.04.6-2.72.6-3.75,0l-10.29-5.98c-1.03-.6-1.02-1.57.02-2.17h0Z" style="fill:#57565e;"></path><path d="m305.77,361.47l10.35-5.98c1.03-.6,2.72-.6,3.74,0l10.29,5.98c1.03.6,1.02,1.57-.01,2.17l-10.35,5.98c-1.04.6-2.72.6-3.75,0l-10.29-5.98c-1.03-.6-1.02-1.57.02-2.17h0Z" style="fill:#57565e;"></path><path d="m289.65,352.1l10.35-5.98c1.03-.6,2.72-.6,3.75,0l10.28,5.98c1.03.6,1.02,1.57-.01,2.17l-10.35,5.98c-1.04.6-2.72.6-3.75,0l-10.28-5.98c-1.03-.6-1.03-1.58.01-2.18h0Z" style="fill:#57565e;"></path><path d="m361.88,337.19l10.35-5.98c1.04-.6,2.72-.6,3.75,0l10.29,5.98c1.03.6,1.03,1.57-.01,2.17l-10.35,5.98c-1.04.6-2.72.6-3.75,0l-10.29-5.98c-1.03-.6-1.02-1.57.02-2.17h0Z" style="fill:#57565e;"></path><path d="m191.29,219.26l10.35-5.98c1.04-.6,2.72-.6,3.75,0l12.77,7.42c1.03.6,1.04,1.57,0,2.17l-10.35,5.98c-1.04.6-2.72.6-3.76,0l-12.77-7.42c-1.03-.6-1.03-1.58.01-2.18h0Z" style="fill:#57565e;"></path><path d="m190.83,294.67l10.35-5.98c1.03-.6,2.72-.6,3.75,0l92.98,54.03c1.03.6,1.02,1.57-.01,2.17l-10.35,5.98c-1.04.6-2.72.6-3.75,0l-92.98-54.03c-1.03-.6-1.03-1.58.01-2.18h0Z" style="fill:#57565e;"></path><path d="m400.95,322.3l2.79-1.61c1.04-.6,2.72-.61,3.75,0l10.28,5.98c1.03.6,1.02,1.57-.02,2.17l-2.79,1.61c-1.04.6-2.72.61-3.75,0l-10.28-5.98c-1.03-.6-1.02-1.57.02-2.17h0Z" style="fill:#57565e;"></path><path d="m384.83,312.93l2.79-1.61c1.04-.6,2.72-.61,3.75,0l10.28,5.98c1.03.6,1.02,1.57-.02,2.17l-2.79,1.61c-1.04.6-2.72.61-3.75,0l-10.28-5.98c-1.03-.6-1.02-1.57.02-2.17h0Z" style="fill:#57565e;"></path><path d="m368.71,303.57l2.79-1.61c1.04-.6,2.72-.61,3.75,0l10.28,5.98c1.03.6,1.03,1.58-.01,2.18l-2.79,1.61c-1.04.6-2.72.6-3.76,0l-10.28-5.98c-1.03-.6-1.02-1.57.02-2.17h0Z" style="fill:#57565e;"></path><path d="m352.6,294.2l2.79-1.61c1.04-.6,2.72-.61,3.75,0l10.28,5.98c1.03.6,1.03,1.58-.01,2.18l-2.79,1.61c-1.04.6-2.72.6-3.76,0l-10.28-5.98c-1.03-.6-1.02-1.57.02-2.17h0Z" style="fill:#57565e;"></path><path d="m336.48,284.83l2.79-1.61c1.04-.6,2.72-.6,3.75,0l10.28,5.98c1.03.6,1.03,1.58-.01,2.18l-2.79,1.61c-1.04.6-2.72.6-3.76,0l-10.28-5.98c-1.03-.6-1.02-1.57.02-2.17h0Z" style="fill:#57565e;"></path><path d="m320.36,275.46l2.79-1.61c1.04-.6,2.72-.6,3.75,0l10.28,5.98c1.03.6,1.03,1.58-.01,2.18l-2.79,1.61c-1.04.6-2.72.6-3.76,0l-10.28-5.98c-1.03-.6-1.02-1.57.02-2.17h0Z" style="fill:#57565e;"></path><path d="m304.24,266.09l2.79-1.61c1.04-.6,2.72-.6,3.75,0l10.28,5.98c1.03.6,1.03,1.58-.01,2.18l-2.79,1.61c-1.04.6-2.72.6-3.76,0l-10.28-5.98c-1.03-.6-1.02-1.57.02-2.17h0Z" style="fill:#57565e;"></path><path d="m288.12,256.73l2.79-1.61c1.04-.6,2.72-.6,3.75,0l10.29,5.98c1.03.6,1.02,1.57-.02,2.17l-2.79,1.61c-1.04.6-2.72.6-3.75,0l-10.29-5.98c-1.03-.6-1.02-1.57.02-2.17h0Z" style="fill:#57565e;"></path><path d="m272,247.36l2.79-1.61c1.04-.6,2.72-.6,3.75,0l10.29,5.98c1.03.6,1.02,1.57-.02,2.17l-2.79,1.61c-1.04.6-2.72.6-3.75,0l-10.29-5.98c-1.03-.6-1.02-1.57.02-2.17h0Z" style="fill:#57565e;"></path><path d="m255.88,237.99l2.79-1.61c1.04-.6,2.72-.6,3.75,0l10.29,5.98c1.03.6,1.02,1.57-.02,2.17l-2.79,1.61c-1.04.6-2.72.6-3.75,0l-10.29-5.98c-1.03-.6-1.02-1.57.02-2.17h0Z" style="fill:#57565e;"></path><path d="m239.76,228.62l2.79-1.61c1.04-.6,2.72-.6,3.75,0l10.29,5.98c1.03.6,1.02,1.57-.02,2.17l-2.79,1.61c-1.04.6-2.72.6-3.75,0l-10.29-5.98c-1.03-.6-1.02-1.57.02-2.17h0Z" style="fill:#57565e;"></path><path d="m223.64,219.26l2.79-1.61c1.04-.6,2.72-.6,3.75,0l10.29,5.98c1.03.6,1.02,1.57-.02,2.17l-2.79,1.61c-1.04.6-2.72.6-3.75,0l-10.29-5.98c-1.03-.6-1.02-1.57.02-2.17h0Z" style="fill:#57565e;"></path><path d="m207.52,209.89l2.79-1.61c1.04-.6,2.72-.6,3.76,0l10.28,5.98c1.03.6,1.02,1.57-.02,2.17l-2.79,1.61c-1.04.6-2.72.6-3.75,0l-10.28-5.98c-1.03-.6-1.03-1.58.01-2.18h0Z" style="fill:#57565e;"></path><path d="m417.07,331.67l2.79-1.61c1.04-.6,2.72-.61,3.75,0l12.78,7.43c1.03.6,1.02,1.57-.02,2.17l-2.79,1.61c-1.04.6-2.72.6-3.75,0l-12.78-7.43c-1.03-.6-1.02-1.57.02-2.17h0Z" style="fill:#57565e;"></path><path d="m377.89,346.62l10.36-5.98c1.03-.6,2.72-.6,3.75,0l19.4,11.27c1.03.6,1.02,1.57-.01,2.17l-10.36,5.98c-1.03.6-2.72.6-3.75,0l-19.4-11.27c-1.03-.6-1.02-1.57.01-2.17h0Z" style="fill:#57565e;"></path><path d="m353.5,351.37l10.35-5.98c1.04-.6,2.72-.6,3.75,0l27.46,15.96c1.03.6,1.02,1.57-.02,2.17l-10.35,5.98c-1.04.6-2.72.6-3.75,0l-27.46-15.96c-1.03-.6-1.03-1.57.01-2.17h0Z" style="fill:#57565e;"></path><path d="m337.06,360.86l10.36-5.98c1.03-.6,2.72-.6,3.75,0l27.46,15.96c1.03.6,1.02,1.57-.01,2.17l-10.36,5.98c-1.03.6-2.72.6-3.75,0l-27.46-15.96c-1.03-.6-1.02-1.57.01-2.17h0Z" style="fill:#57565e;"></path><path d="m174.95,228.69l10.36-5.98c1.03-.6,2.72-.6,3.75,0l19.78,11.5c1.03.6,1.02,1.57-.01,2.17l-10.36,5.98c-1.03.6-2.71.6-3.75,0l-19.78-11.5c-1.04-.6-1.03-1.58,0-2.17h0Z" style="fill:#57565e;"></path><path d="m158.62,238.12l10.35-5.98c1.04-.6,2.72-.6,3.76,0l27.84,16.18c1.03.6,1.02,1.57-.02,2.17l-10.35,5.98c-1.04.6-2.71.6-3.75,0l-27.84-16.18c-1.03-.6-1.04-1.57,0-2.17h0Z" style="fill:#57565e;"></path><path d="m328.67,368.72s0-.02,0-.03v-1.14s.67.16.67.16c.04-.03.07-.06.12-.08l2.79-1.61c1.04-.6,2.72-.61,3.75,0l9.52,5.53,1.53.36v1.23c-.04.37-.29.74-.79,1.03l-2.79,1.61c-1.04.6-2.72.61-3.75,0l-10.28-5.98c-.5-.29-.76-.67-.76-1.06h0Z" style="fill:#393842;"></path><path d="m321.1,373.09s0-.02,0-.03v-1.14s.67.16.67.16c.04-.03.07-.06.12-.08l2.79-1.61c1.04-.6,2.72-.61,3.75,0l9.52,5.53,1.53.36v1.23c-.04.37-.29.74-.79,1.03l-2.79,1.61c-1.04.6-2.72.61-3.75,0l-10.28-5.98c-.5-.29-.76-.68-.76-1.06h0Z" style="fill:#393842;"></path><path d="m329.45,366.47l2.79-1.61c1.03-.6,2.71-.6,3.75,0l10.28,5.98c1.03.6,1.02,1.57-.01,2.17l-2.79,1.61c-1.04.6-2.71.6-3.75,0l-10.28-5.98c-1.03-.6-1.03-1.57.01-2.17h0Z" style="fill:#57565e;"></path><path d="m321.89,370.83l2.79-1.61c1.04-.6,2.72-.61,3.75,0l10.28,5.98c1.03.6,1.02,1.57-.02,2.17l-2.79,1.61c-1.04.6-2.72.61-3.75,0l-10.28-5.98c-1.03-.6-1.02-1.57.02-2.17h0Z" style="fill:#57565e;"></path><path d="m208.43,267.06l10.35-5.98c1.04-.6,2.72-.61,3.75,0l10.28,5.98c1.03.6,1.02,1.57-.02,2.17l-10.35,5.98c-1.04.6-2.71.6-3.75,0l-10.28-5.98c-1.03-.6-1.03-1.57.01-2.17h0Z" style="fill:#57565e;"></path><path d="m192.31,257.69l10.35-5.98c1.04-.6,2.72-.61,3.75,0l10.28,5.98c1.03.6,1.02,1.57-.02,2.17l-10.35,5.98c-1.04.6-2.71.6-3.75,0l-10.28-5.98c-1.03-.6-1.03-1.57.01-2.17h0Z" style="fill:#57565e;"></path><path d="m191.99,276.55l10.36-5.98c1.03-.6,2.71-.6,3.75,0l10.28,5.98c1.03.6,1.02,1.57-.01,2.17l-10.36,5.98c-1.03.6-2.71.6-3.75,0l-10.28-5.98c-1.03-.6-1.02-1.57.01-2.17h0Z" style="fill:#57565e;"></path><path d="m175.87,267.19l10.36-5.98c1.03-.6,2.71-.6,3.75,0l10.28,5.98c1.03.6,1.02,1.57-.01,2.17l-10.36,5.98c-1.03.6-2.71.6-3.75,0l-10.28-5.98c-1.03-.6-1.02-1.57.01-2.17h0Z" style="fill:#57565e;"></path><path d="m159.75,257.82l10.36-5.98c1.03-.6,2.71-.6,3.75,0l10.28,5.98c1.03.6,1.02,1.57-.01,2.17l-10.36,5.98c-1.03.6-2.71.6-3.74,0l-10.28-5.98c-1.03-.6-1.02-1.57.01-2.17h0Z" style="fill:#57565e;"></path><path d="m142.18,247.61l10.36-5.98c1.03-.6,2.72-.6,3.75,0l11.72,6.81c1.03.6,1.02,1.57-.01,2.17l-10.36,5.98c-1.03.6-2.71.6-3.75,0l-11.72-6.81c-1.03-.6-1.03-1.58,0-2.17h0Z" style="fill:#57565e;"></path><path d="m240.67,285.8l10.35-5.98c1.04-.6,2.72-.61,3.75,0l10.28,5.98c1.03.6,1.02,1.57-.02,2.17l-10.35,5.98c-1.04.6-2.71.6-3.75,0l-10.28-5.98c-1.03-.6-1.03-1.57.01-2.17h0Z" style="fill:#57565e;"></path><path d="m224.55,276.43l10.35-5.98c1.04-.6,2.72-.61,3.75,0l10.28,5.98c1.03.6,1.02,1.57-.02,2.17l-10.35,5.98c-1.04.6-2.71.6-3.74,0l-10.28-5.98c-1.03-.6-1.03-1.57.01-2.17h0Z" style="fill:#57565e;"></path><path d="m224.23,295.29l10.36-5.98c1.03-.6,2.71-.6,3.75,0l10.28,5.98c1.03.6,1.02,1.57-.01,2.17l-10.36,5.98c-1.03.6-2.71.6-3.75,0l-10.28-5.98c-1.03-.6-1.02-1.57.01-2.17h0Z" style="fill:#57565e;"></path><path d="m208.11,285.92l10.36-5.98c1.03-.6,2.71-.6,3.75,0l10.28,5.98c1.03.6,1.02,1.57-.01,2.17l-10.36,5.98c-1.03.6-2.71.6-3.74,0l-10.28-5.98c-1.03-.6-1.02-1.57.01-2.17h0Z" style="fill:#57565e;"></path><path d="m272.9,304.53l10.35-5.98c1.04-.6,2.72-.6,3.76,0l10.28,5.98c1.03.6,1.02,1.57-.02,2.17l-10.35,5.98c-1.04.6-2.71.6-3.74,0l-10.28-5.98c-1.03-.6-1.04-1.57,0-2.17h0Z" style="fill:#57565e;"></path><path d="m256.78,295.16l10.35-5.98c1.04-.6,2.72-.6,3.76,0l10.28,5.98c1.03.6,1.02,1.57-.02,2.17l-10.35,5.98c-1.04.6-2.71.6-3.75,0l-10.28-5.98c-1.04-.6-1.04-1.57,0-2.17h0Z" style="fill:#57565e;"></path><path d="m256.46,314.02l10.36-5.98c1.03-.6,2.72-.6,3.75,0l10.28,5.98c1.03.6,1.02,1.57-.01,2.17l-10.36,5.98c-1.03.6-2.71.6-3.74,0l-10.28-5.98c-1.03-.6-1.03-1.58,0-2.17h0Z" style="fill:#57565e;"></path><path d="m240.34,304.65l10.36-5.98c1.03-.6,2.72-.6,3.75,0l10.28,5.98c1.03.6,1.02,1.57-.01,2.17l-10.36,5.98c-1.03.6-2.71.6-3.75,0l-10.28-5.98c-1.03-.6-1.03-1.58,0-2.17h0Z" style="fill:#57565e;"></path><path d="m305.14,323.26l10.35-5.98c1.04-.6,2.72-.6,3.76,0l10.28,5.98c1.03.6,1.02,1.57-.02,2.17l-10.35,5.98c-1.04.6-2.71.6-3.75,0l-10.28-5.98c-1.03-.6-1.04-1.57,0-2.17h0Z" style="fill:#57565e;"></path><path d="m289.02,313.9l10.35-5.98c1.04-.6,2.72-.6,3.76,0l10.28,5.98c1.03.6,1.02,1.57-.02,2.17l-10.35,5.98c-1.04.6-2.71.6-3.75,0l-10.28-5.98c-1.03-.6-1.04-1.57,0-2.17h0Z" style="fill:#57565e;"></path><path d="m288.7,332.76l10.36-5.98c1.03-.6,2.72-.6,3.75,0l10.28,5.98c1.03.6,1.02,1.57-.01,2.17l-10.36,5.98c-1.03.6-2.71.6-3.75,0l-10.28-5.98c-1.03-.6-1.03-1.58,0-2.17h0Z" style="fill:#57565e;"></path><path d="m272.58,323.39l10.36-5.98c1.03-.6,2.72-.6,3.75,0l10.28,5.98c1.03.6,1.02,1.57-.01,2.17l-10.36,5.98c-1.03.6-2.71.6-3.75,0l-10.28-5.98c-1.03-.6-1.03-1.58,0-2.17h0Z" style="fill:#57565e;"></path><path d="m337.38,342l10.35-5.98c1.04-.6,2.72-.6,3.76,0l10.28,5.98c1.03.6,1.02,1.57-.02,2.17l-10.35,5.98c-1.04.6-2.72.6-3.75,0l-10.28-5.98c-1.03-.6-1.04-1.57,0-2.17h0Z" style="fill:#57565e;"></path><path d="m321.26,332.63l10.35-5.98c1.04-.6,2.72-.6,3.76,0l10.28,5.98c1.03.6,1.02,1.57-.02,2.17l-10.35,5.98c-1.04.6-2.71.6-3.74,0l-10.28-5.98c-1.03-.6-1.04-1.57,0-2.17h0Z" style="fill:#57565e;"></path><path d="m320.94,351.49l10.36-5.98c1.03-.6,2.72-.6,3.75,0l10.28,5.98c1.03.6,1.02,1.57-.01,2.17l-10.36,5.98c-1.03.6-2.72.6-3.75,0l-10.28-5.98c-1.03-.6-1.03-1.58,0-2.17h0Z" style="fill:#57565e;"></path><path d="m304.82,342.12l10.36-5.98c1.03-.6,2.72-.6,3.75,0l10.28,5.98c1.03.6,1.02,1.57-.01,2.17l-10.36,5.98c-1.03.6-2.71.6-3.74,0l-10.28-5.98c-1.03-.6-1.03-1.58,0-2.17h0Z" style="fill:#57565e;"></path><path d="m174.71,285.3l10.35-5.98c1.03-.6,2.72-.6,3.75,0l10.28,5.98c1.03.6,1.02,1.57-.01,2.17l-10.35,5.98c-1.04.6-2.72.61-3.75,0l-10.28-5.98c-1.03-.6-1.03-1.58.01-2.18h0Z" style="fill:#57565e;"></path><path d="m158.6,275.94l10.35-5.98c1.03-.6,2.71-.6,3.74,0l10.28,5.98c1.03.6,1.02,1.57-.01,2.17l-10.35,5.98c-1.04.6-2.72.61-3.75,0l-10.28-5.98c-1.03-.6-1.02-1.57.02-2.17h0Z" style="fill:#57565e;"></path><path d="m125.96,256.97l10.35-5.98c1.03-.6,2.72-.6,3.75,0l10.28,5.98c1.03.6,1.02,1.57-.01,2.17l-10.35,5.98c-1.04.6-2.72.6-3.75,0l-10.28-5.98c-1.03-.6-1.03-1.58.01-2.18h0Z" style="fill:#57565e;"></path><path d="m9.01,421.51s-9.9,10.69,11.78,10.05c21.68-.64,26.99-8.84,42.48-5.01,15.49,3.83,41.65,22.39,41.65,22.39l-5.53,25.63s-4.65,8.48,10.94,10.61c15.6,2.12,32.51-11.97,41.83-24.76,9.32-12.79,18.54-5.88,21.35-15.31,2.82-9.43-1.22-12.52-10.85-19.96-9.63-7.44-66.46-27.49-88.13-25.27-21.67,2.22-65.53,21.63-65.53,21.63Z" style="fill:#141415; opacity:.25;"></path><path d="m132.55,429.4s1.09,1.25,2.72,3.03c3.53,3.86,9.56,10.21,12.33,11.66.64.31,5.38,3.64,8.65,2.8,2.07-.53,7.01-4.89,7.65-7.25.01-.06.03-.12.05-.19.35-1.56-.61-7.19-1.3-12.15-.71-5.13-2.45-8.74-3.82-15.43-1-4.93-6.57,9.32-6.57,9.32,0,0-24.92.64-19.72,8.22Z" style="fill:#141415;"></path><path d="m135.27,432.43c3.53,3.86,9.56,10.21,12.33,11.66.64.31,5.38,3.64,8.65,2.8,2.07-.53,7.01-4.89,7.65-7.25.01-.06.03-.12.05-.19-.28.46-5.63,4.73-5.96,4.97-1.92,1.39-4.71.4-7.13-2.31-2.42-2.72-1.01-6.76-1.01-6.76,0-5.58-8.45-6.79-14.22-3.15-.12.08-.25.16-.37.24Z"></path><path d="m96.76,471.16l.43,1.71c.39,1.56,1.85,4.17,3.39,5.03,1.1.61,2.04,1.08,3.91,1.23,19.72,1.56,39.51-32.16,50.78-50.62,5.12-8.41,5.48-15.63,4.49-19.6l-.43-1.71c.99,3.97-5.57-9.57-10.7-1.16-11.27,18.46-22.98,66.58-42.7,65.01-1.87-.15-7.79-3.38-8.89-3.99-1.54-.86.1,5.66-.29,4.1h0Z"></path><path d="m4.7,419.78l.43,1.71c.13.52.32,1.03.58,1.52.66,1.26,2.7,4.37,3.8,4.98,10.49,5.81,37.72-15.42,51.3-7.9,9.27,5.14,29.3,15.42,36.38,19.34,2.48,1.37,3.59,2.26,4.16,4.57l-.43-1.71c-.57-2.31-1.9-6.71-4.38-8.08-7.08-3.92-26.7-15.71-35.97-20.85-13.57-7.52-41.07,13.96-51.56,8.15-1.1-.61-2-1.51-2.67-2.77-.26-.5-1.52,1.56-1.65,1.04h0Z"></path><path d="m6.62,423.09c3.64,3.48,9.98,1.87,14.23.7,5.26-1.45,10.37-3.39,15.55-5.09,4.76-1.57,9.67-3.09,14.7-3.49,2.47-.2,4.94-.08,7.3.71,2.5.84,26.51,14.29,36.22,19.67,3.77,2.09,6.66,4.58,6.4,9.25-.27,4.78-2.16,9.45-3.37,14.04-.91,3.44-1.58,6.88-1.19,10.44.5,4.63,3.75,6.49,8.1,6.7,9.6.45,17.65-6.57,23.74-13.19,7.16-7.78,13.13-16.57,18.74-25.5,2.82-4.49,5.69-8.99,8.3-13.61,2.45-4.33,4.71-9.3,4.33-14.4-.67-8.96-8.47-13.53-15.43-17.51-6.93-3.96-42.71-23.7-45.64-25.21-2.04-1.05-4.07-2.07-6.27-2.73-10.74-3.25-21.65,1.72-31.05,6.63-11.76,6.15-23.35,12.82-34.41,20.17-5.06,3.36-10.23,6.8-14.65,11-3.83,3.63-7.85,8.62-7.89,14.17-.08,2.59.34,5.38,2.29,7.25Z" style="fill:#d2d2da;"></path><path d="m92.68,366.53c-3.54-1.48-10.19-5.16-28.9,4.6-34.88,18.21-62.5,36.38-57.21,44.59.32.59.68.8.86,1,5.73,6.47,21.97-10.43,37.21-12.99,6.63-1.11,13.28-.97,18.99,1.96,9.27,5.14,26.47,14.67,33.55,18.59,17.77,10.65-.87,31.12,1.65,37.24,1.35,3.26,4.04,4.14,4.92,4.22,12.47,1.64,31.61-30.47,42.77-48.75,9.02-15.28,2.07-18.99-.82-21.08-1.01-.74-51.76-28.88-53.03-29.39Z" style="fill:#eeeef1;"></path><path d="m95.69,383.33l9.11-10.29,21.37,11.91,2.28-2.32,9.67,4.72,1.66.94,1.3,1.74-1.06-.6-3.47-1.14-4.28.05-9.35,10.62c-1.75,1.97-4.65,2.43-6.93,1.1l-19.46-11.41c-.49-.29-.88-.67-1.17-1.11-.18-.28-.9-1.59-.92-1.76-.13-.96.54-1.65,1.25-2.45Z" style="fill:#1e2124;"></path><path d="m5.12,421.49c1.03,3.55,3.38,7.96,8.71,8.8,3.66.57,10.12-1.7,18.3-4.58,10.53-3.7,20.64-6.86,28.52-4.79,1.15.3,2.73.72,38.53,20.9,1.57.89,1.88,1.54,2.11,2.01-.52-2.12-1.85-4.08-4.33-5.45-7.08-3.92-26.57-14.73-35.84-19.87-13.57-7.52-42.26,13.09-52.75,7.28-1.1-.61-2-1.51-2.67-2.77-.26-.5-.45-1-.58-1.52h0Z" style="fill:#141415;"></path><path d="m97.18,472.88c3.35,11.68,14.89,9.37,22.02,4,2.66-2,8.19-6.17,15.88-16.29,10.43-13.72,20.73-31.8,20.81-31.96,5.15-9.48,4.77-15.51,3.86-19.71.99,3.97.2,9.69-4.92,18.09-11.27,18.46-30.71,52.27-50.43,50.71-1.87-.15-3.33-.55-4.43-1.16-1.54-.86-2.4-2.12-2.79-3.69h0Z" style="fill:#141415;"></path><path d="m140.09,442.63s3.78-5.59,6.89-8.04c.76-.53,2.72-.46,5.06,1.24.6.44,1.82,1.07,3.49.58,2.97-.87,6.44-4.37,7.08-6.73.55-2.05-2.47-18.85-3.41-22.41-.75-2.84-1.5-.1-2.35-2.16-1.92-4.65-4.57,5.18-4.57,5.18,0,0-17.39,24.77-12.18,32.35Z" style="fill:#d2d2da;"></path><path d="m101.81,430.76c-.82-1.69-2.84-3.42-3.51-3.82l-35.77-19.97c-9.54-4.23-15.55-.58-15.56-.52-.13.76,1.46,1.06,3.48,1.44q6.43,1.22,24.85,11.42c1.38.77,2.78,1.54,4.16,2.31,16.63,9.22,21.64,12,22.3,11.82.76-.21.12-2.42.04-2.67h0Z" style="fill:#eeeef1;"></path><path d="m115.33,398.8l-19.46-11.41c-1.9-1.11-2.3-3.69-.83-5.33l9.11-10.29,27.46,15.31-9.35,10.62c-1.75,1.97-4.65,2.43-6.92,1.1Z" style="fill:#353d39;"></path><polygon points="131.61 387.09 104.15 371.78 110.65 372.05 138.11 387.35 131.61 387.09" style="fill:#282f2c;"></polygon><path d="m67.39,378.43l.35-.08c.21-1.98,1.02-4.02,2.49-5.89,4.23-5.38,12.24-7.37,17.88-4.44,2,1.04,3.42,2.57,4.25,4.34l.28.49.45,1.85h0c.43,2.71-.34,5.7-2.44,8.37-4.23,5.38-12.24,7.37-17.88,4.44-2.9-1.51-4.6-4.03-5-6.85h-.01s-.37-2.23-.37-2.23Z" style="fill:#1e2124;"></path><path d="m87.78,367.03c-5.64-2.93-13.64-.94-17.88,4.44-4.23,5.38-3.1,12.12,2.54,15.05,5.64,2.93,13.64.94,17.88-4.44,4.23-5.38,3.1-12.12-2.54-15.05h0Z" style="fill:#353d39;"></path><path d="m83.6,368.72c.38-.49,1.08-.68,1.63-.49l.09-1.1,3.78-.74.53,3.23-.05.02c.02.25-.05.53-.24.77l-8.48,10.77-1.25-7.39,3.99-5.07Z" style="fill:#1e2124;"></path><path d="m70.13,380.79l4.88-1.16.11-.14.15.08,1.53-.36,3.69-.23.36,2.2-3.99,5.07c-.42.54-1.22.74-1.79.44l-3.93-2.04c-.28-.15-.45-.39-.5-.67h0s-.53-3.2-.53-3.2Z" style="fill:#1e2124;"></path><path d="m84.33,376.77l1.01-1.29,1.21,1.92,4.09-1.6.51,3.1h0c.05.27-.03.58-.24.85l-2.95,3.75c-.43.54-1.22.74-1.79.44l-5.31-2.76-.36-2.2,3.84-2.21Z" style="fill:#1e2124;"></path><path d="m68.55,371.45l2.32-1.11,1.19,1.69.44-.56c.42-.54,1.23-.74,1.79-.44l5.31,2.76-4.72,4.29-5.31-2.76c-.32-.17-.48-.46-.49-.78h-.03s-.51-3.09-.51-3.09Z" style="fill:#1e2124;"></path><path d="m84.64,363.73c-.56-.29-1.37-.09-1.79.44l-3.84,6,5.97,3.11,3.84-6c.42-.54.32-1.21-.25-1.51l-3.93-2.04h0Z" style="fill:#353d39;"></path><path d="m74.52,375.88l-4.14,4.15c-.42.54-.31,1.22.25,1.51l3.93,2.04c.57.3,1.37.09,1.79-.44l4.14-4.15-5.97-3.11h0Z" style="fill:#282f2c;"></path><path d="m79.01,370.17l-4.49,5.7,5.97,3.11,4.49-5.7-5.97-3.11h0Z" style="fill:#2c3330;"></path><path d="m84.98,373.28l-4.49,5.7,5.16,1.84c.57.3,1.36.1,1.79-.44l2.95-3.75c.42-.54.32-1.21-.25-1.51l-5.16-1.84h0Z" style="fill:#2c3330;"></path><path d="m73.54,366.48c-.56-.29-1.37-.09-1.79.44l-2.95,3.75c-.43.54-.31,1.22.25,1.51l5.47,3.69,4.49-5.7-5.47-3.69h0Z" style="fill:#2c3330;"></path><path d="m81.57,372.26c1.34.7,1.61,2.3.6,3.58-1.01,1.28-2.91,1.75-4.25,1.05s-1.61-2.3-.6-3.58c1.01-1.28,2.91-1.75,4.25-1.05h0Z" style="fill:#1e2124;"></path><path d="m81.12,373.7c.79.41.96,1.36.36,2.12-.6.76-1.73,1.04-2.52.63-.79-.41-.96-1.36-.36-2.12.6-.76,1.72-1.04,2.52-.63h0Z" style="fill:#2f3531;"></path><polygon points="85.44 365.6 86.15 365.97 83.17 370.89 82.45 370.51 85.44 365.6 85.44 365.6" style="fill:#565e58;"></polygon><polygon points="76.34 378.28 77.06 378.65 73.77 381.71 73.05 381.34 76.34 378.28" style="fill:#3d423f;"></polygon><polygon points="84.1 376.35 88.12 377.59 87.57 378.28 83.55 377.04 84.1 376.35" style="fill:#414743;"></polygon><polygon points="71.63 369.02 75.96 372.12 75.42 372.81 71.08 369.71 71.63 369.02 71.63 369.02" style="fill:#414743;"></polygon><path d="m93.2,414.92l-3.89-3.65c-.5-.29-.64-.95-.3-1.42l.6-.83c.65-.9,1.88-1.16,2.85-.6l4.64,2.7c.5.29.64.95.3,1.42l-.6.83c-1.18,1.7-2.63,2.12-3.59,1.56Z" style="fill:#95a69f;"></path><path d="m86.45,410.35l.93.09.43-.59c.65-.9,1.88-1.16,2.85-.6l3.15,1.84,1.26.13.58,1.11h-.02c.18.32.19.73-.05,1.05l-.6.83c-.65.9-1.88,1.16-2.85.6l-4.64-2.7c-.25-.15-.41-.39-.47-.65l-.6-1.1Z" style="fill:#e23317;"></path><path d="m91.53,413.61l-4.64-2.7c-.5-.29-.64-.95-.3-1.42l.6-.83c.65-.9,1.88-1.16,2.85-.6l4.64,2.7c.5.29.64.95.3,1.42l-.6.83c-.65.9-1.88,1.16-2.85.6Z" style="fill:#ff7f78;"></path><path d="m92.44,413.27c.57,0,1.11-.28,1.45-.74l.6-.83c.1-.14.14-.31.1-.47-.04-.17-.14-.31-.28-.39l-4.64-2.7c-.27-.16-.58-.24-.9-.24-.57,0-1.12.27-1.45.74l-.6.83c-.1.14-.14.31-.1.47.04.17.14.31.29.39l4.64,2.7c.27.16.58.24.9.24Z" style="fill:#ff5338;"></path><path d="m81.3,408.09l-3.89-3.65c-.5-.29-.64-.95-.3-1.42l.6-.83c.65-.9,1.88-1.16,2.85-.6l4.64,2.7c.5.29.64.95.3,1.42l-.6.83c-1.18,1.7-2.63,2.12-3.59,1.56Z" style="fill:#95a69f;"></path><path d="m74.55,403.53l.93.09.43-.59c.65-.9,1.88-1.16,2.85-.6l3.15,1.84,1.26.13.58,1.11h-.02c.18.32.19.73-.05,1.05l-.6.83c-.65.9-1.88,1.16-2.85.6l-4.64-2.7c-.25-.15-.41-.39-.46-.65l-.6-1.1Z" style="fill:#e23317;"></path><path d="m79.63,406.79l-4.64-2.7c-.5-.29-.64-.95-.3-1.42l.6-.83c.65-.9,1.88-1.16,2.85-.6l4.64,2.7c.5.29.64.95.3,1.42l-.6.83c-.65.9-1.88,1.16-2.85.6Z" style="fill:#ff7f78;"></path><path d="m80.54,406.45c.57,0,1.11-.28,1.45-.74l.6-.83c.1-.14.14-.31.1-.48-.04-.17-.14-.31-.28-.39l-4.64-2.7c-.27-.16-.58-.24-.9-.24-.57,0-1.12.27-1.45.74l-.6.83c-.1.14-.14.31-.1.47.04.17.14.31.29.39l4.64,2.7c.27.16.58.24.9.24Z" style="fill:#ff5338;"></path><path d="m126.95,406.96c-1.81-.29-4.11.54-5.63,2.13l-.72.76c-1.86,1.95-1.85,4.32.02,5.29l13.73,7.12c.34.18.72.3,1.12.36,1.81.29,4.11-.54,5.63-2.13l.72-.76c1.86-1.95,1.84-4.32-.02-5.29l-13.73-7.12c-.34-.18-.72-.3-1.12-.36h0Z" style="fill:#aeb2b2;"></path><path d="m132.73,417.43l7.18-3.43.97,2.28h-.02c.3.89,0,2.02-.96,3.02-1.19,1.25-2.98,1.89-4.39,1.67-.31-.05-.61-.14-.87-.28-.52-.27-.85-.69-1-1.17h-.02s-.89-2.09-.89-2.09Z" style="fill:#e8a200;"></path><path d="m120.55,411.19l7.14-3.53.92,2.15h-.02c.39.9.1,2.1-.9,3.16-1.19,1.24-2.99,1.89-4.4,1.66-.31-.05-.61-.14-.87-.28-.46-.24-.76-.6-.93-1.02h-.02s-.92-2.15-.92-2.15Z" style="fill:#e23317;"></path><path d="m138.1,412.74c.31.05.61.14.87.28,1.46.76,1.47,2.61.02,4.13-1.19,1.25-2.98,1.89-4.39,1.67-.31-.05-.61-.14-.87-.28-1.45-.76-1.47-2.61-.01-4.13,1.18-1.25,2.98-1.89,4.39-1.66h0Z" style="fill:#ffea58;"></path><path d="m125.88,406.41c.31.05.61.14.87.28,1.47.76,1.47,2.61.02,4.14-1.19,1.25-2.99,1.89-4.4,1.66-.31-.05-.61-.14-.87-.28-1.46-.76-1.47-2.61-.01-4.13,1.18-1.25,2.98-1.89,4.39-1.66h0Z" style="fill:#ff7f78;"></path><path d="m125.64,406.38c.29.05.56.13.81.26,1.35.7,1.36,2.41.02,3.82-1.1,1.15-2.76,1.74-4.06,1.54-.29-.05-.56-.13-.81-.26-1.35-.7-1.35-2.41-.01-3.82,1.09-1.15,2.75-1.74,4.06-1.54h0Z" style="fill:#ff5338;"></path><path d="m137.89,412.78c.29.05.56.13.81.26,1.35.7,1.36,2.41.02,3.82-1.1,1.15-2.76,1.74-4.06,1.54-.29-.05-.56-.13-.81-.26-1.35-.7-1.35-2.41-.01-3.82,1.09-1.15,2.75-1.74,4.06-1.54h0Z" style="fill:#ffc20e;"></path><path d="m132.88,395.51c-1.81-.29-4.11.54-5.63,2.13l-.72.76c-1.86,1.95-1.85,4.32.02,5.29l13.73,7.13c.34.18.72.29,1.12.36,1.81.29,4.11-.54,5.63-2.13l.73-.76c1.86-1.95,1.84-4.32-.02-5.29l-13.73-7.13c-.34-.18-.72-.3-1.12-.36h0Z" style="fill:#aeb2b2;"></path><path d="m138.71,406.12l7.07-3.69.97,2.28h-.02c.39.9.1,2.1-.91,3.16-1.18,1.25-2.98,1.89-4.39,1.66-.31-.05-.61-.14-.87-.28-.47-.25-.78-.62-.95-1.05h-.02s-.89-2.09-.89-2.09Z" style="fill:#249fa3;"></path><path d="m126.45,399.68l7.17-3.45.96,2.24h-.02c.33.9.02,2.05-.94,3.06-1.19,1.25-2.99,1.89-4.4,1.66-.31-.05-.61-.14-.87-.28-.47-.24-.77-.6-.94-1.02h-.02s-.95-2.22-.95-2.22Z" style="fill:#567d02;"></path><path d="m144.03,401.3c.31.05.61.14.87.28,1.46.76,1.47,2.61.02,4.13-1.18,1.25-2.98,1.89-4.39,1.66-.31-.05-.61-.14-.87-.28-1.46-.76-1.47-2.61-.02-4.13,1.18-1.25,2.98-1.89,4.39-1.66h0Z" style="fill:#62abef;"></path><path d="m131.81,394.97c.31.05.61.14.87.28,1.46.76,1.47,2.61.02,4.14-1.19,1.25-2.99,1.89-4.4,1.66-.31-.05-.61-.14-.87-.28-1.46-.76-1.47-2.61-.02-4.13,1.19-1.25,2.98-1.89,4.39-1.67h0Z" style="fill:#b0db55;"></path><path d="m131.63,394.99c.29.05.56.13.81.26,1.35.7,1.36,2.41.02,3.82-1.1,1.15-2.76,1.74-4.06,1.54-.29-.05-.56-.13-.81-.26-1.35-.7-1.35-2.41-.01-3.82,1.09-1.15,2.75-1.74,4.06-1.54h0Z" style="fill:#9ed529;"></path><path d="m143.85,401.32c.29.05.56.13.81.26,1.35.7,1.36,2.41.02,3.82-1.1,1.15-2.76,1.74-4.06,1.54-.29-.05-.56-.13-.81-.26-1.35-.7-1.35-2.41-.01-3.82,1.09-1.15,2.75-1.74,4.06-1.54h0Z" style="fill:#00c7c7;"></path><path d="m58.08,396.1c-.91,4.11,2.4,7.54,7.4,7.66,5,.12,9.78-3.12,10.69-7.23.91-4.11-2.4-7.54-7.4-7.66-5-.12-9.78,3.12-10.69,7.23Z" style="fill:url(#d);"></path><path d="m61.11,396.45c-.63,2.83,1.66,5.2,5.1,5.28,3.44.08,6.74-2.15,7.37-4.98.63-2.83-1.66-5.2-5.1-5.28-3.44-.08-6.74,2.15-7.37,4.98Z" style="fill:#2c2c2c;"></path><path d="m63.68,396.76l6.22-2.3.63,1.97h-.01c.18.76-.16,1.68-1.03,2.43-1.08.95-2.62,1.34-3.78,1.05-.26-.06-.49-.16-.7-.3-.41-.27-.65-.64-.74-1.05h-.02s-.58-1.81-.58-1.81Z" style="fill:#202020;"></path><path d="m58.47,393.59s.15-.07.4-.19c.13-1.01.62-2.07,1.49-3.05,2.45-2.76,6.96-3.93,10.07-2.61.33.14.63.31.9.49.38-.08.63-.09.7,0,.46.58.81,1.62.96,2.12.01.04.02.08.03.11.03.1.05.17.05.17h0c.32,1.4-.13,3.02-1.43,4.48-2.45,2.76-6.95,3.92-10.07,2.6-.93-.39-1.62-.97-2.08-1.65,0,0,0,0-.01,0-.78-.86-1-2.49-1-2.49Z" style="fill:#1e2124;"></path><path d="m70.01,386.69c3.12,1.32,3.65,4.63,1.21,7.39-2.45,2.76-6.95,3.92-10.07,2.6-3.11-1.32-3.65-4.63-1.2-7.39,2.45-2.76,6.96-3.93,10.07-2.61h0Z" style="fill:#282f2c;"></path><path d="m68.9,387.04c2.55,1.08,2.99,3.8.99,6.06-2.01,2.26-5.7,3.22-8.25,2.13-2.55-1.08-2.99-3.79-.99-6.05,2.01-2.26,5.7-3.22,8.25-2.14h0Z" style="fill:#2c3330;"></path><path d="m66.25,386.97c1.76.19,2.22,1.47,1.04,2.87-1.18,1.4-3.55,2.38-5.31,2.19-1.75-.19-2.22-1.47-1.04-2.87,1.18-1.4,3.55-2.38,5.31-2.19h0Z" style="fill:#353d39;"></path><path d="m99.08,418.93c-.91,4.11,2.4,7.54,7.4,7.66,5,.12,9.78-3.12,10.69-7.23.91-4.11-2.4-7.54-7.4-7.66-5-.12-9.78,3.12-10.69,7.23Z" style="fill:url(#e);"></path><path d="m102.12,419.28c-.63,2.83,1.66,5.2,5.1,5.28,3.44.08,6.74-2.15,7.37-4.98.63-2.83-1.66-5.2-5.1-5.28-3.44-.08-6.74,2.15-7.37,4.98Z" style="fill:#2c2c2c;"></path><path d="m104.68,419.59l6.22-2.3.63,1.97h-.01c.18.76-.16,1.68-1.03,2.43-1.08.95-2.62,1.34-3.78,1.05-.26-.06-.49-.16-.7-.3-.41-.27-.65-.64-.74-1.05h-.02s-.58-1.81-.58-1.81Z" style="fill:#202020;"></path><path d="m99.47,416.42s.15-.07.4-.19c.13-1.01.62-2.07,1.49-3.05,2.45-2.76,6.96-3.93,10.07-2.61.33.14.63.31.9.49.38-.08.63-.09.7,0,.46.58.81,1.62.96,2.12.01.04.02.08.03.11.03.1.05.17.05.17h0c.32,1.4-.13,3.02-1.43,4.48-2.45,2.76-6.95,3.92-10.07,2.6-.93-.39-1.62-.97-2.08-1.65,0,0,0,0-.01,0-.78-.86-1-2.49-1-2.49Z" style="fill:#1e2124;"></path><path d="m111.01,409.51c3.12,1.32,3.65,4.63,1.21,7.39-2.45,2.76-6.95,3.92-10.07,2.6-3.11-1.32-3.65-4.63-1.2-7.39,2.45-2.76,6.96-3.93,10.07-2.61h0Z" style="fill:#282f2c;"></path><path d="m109.9,409.87c2.55,1.08,2.99,3.8.99,6.06-2.01,2.26-5.7,3.22-8.25,2.13-2.55-1.08-2.99-3.79-.99-6.05,2.01-2.26,5.7-3.22,8.25-2.14h0Z" style="fill:#2c3330;"></path><path d="m107.25,409.8c1.76.19,2.22,1.47,1.04,2.87-1.18,1.4-3.55,2.38-5.31,2.19-1.75-.19-2.22-1.47-1.04-2.87,1.18-1.4,3.55-2.38,5.31-2.19h0Z" style="fill:#353d39;"></path><path d="m86.79,397.22c.81.47.85,1.4.08,2.07-.77.68-2.05.85-2.86.38-.81-.47-.85-1.4-.08-2.08.77-.68,2.05-.84,2.86-.38h0Z" style="fill:#46a50a;"></path><path d="m86.22,397.27c.54.31.57.93.05,1.38-.51.45-1.37.56-1.91.25-.54-.31-.57-.93-.05-1.39.51-.45,1.37-.56,1.91-.25h0Z" style="fill:#9ed529;"></path><path d="m98.3,403.59c.81.47.85,1.4.08,2.07-.77.68-2.05.85-2.86.38-.81-.47-.85-1.4-.08-2.08.77-.68,2.05-.84,2.86-.38h0Z" style="fill:#46a50a;"></path><path d="m97.74,403.63c.54.31.57.93.05,1.38-.51.45-1.37.57-1.91.25-.54-.31-.57-.93-.05-1.39.51-.45,1.37-.56,1.91-.25h0Z" style="fill:#9ed529;"></path><path d="m493.01,378.75c11.6-7.52,24.99-11.03,33.25-18.82,8.26-7.79,17.94-21.29,32.89-19.68,14.96,1.62,24.99,8.33,24.99,8.33l22.22-1.58s25.33,1.5,31.67,4.25c6.01,2.61,12.9,10.06,14.08,17.03,1.17,6.97,7.04,10.39.29,17.3-6.75,6.92-22.88,4.6-28.15,6.86-5.28,2.26,0-3.31-12.32,7.73-12.32,11.04-13.66,9.21-27.8,9.21-14.14,0-14.5,10.42-28.5,8.29-5.38-3.98-3.98-1.15-10.82-5.6-4.37-2.84-.16-25.4-3.4-29.19s-31.82,6.84-35.99,6.46-12.43-10.59-12.43-10.59Z" style="fill:#141415; opacity:.25;"></path><path d="m536,295c-5.92,3.44-11.09,8-16.23,12.52-3.54,3.12-7.17,6.34-9.3,10.55-1.36,2.68-2.06,5.8-1.44,8.74.62,2.95,2.72,5.66,5.6,6.54,2.98.91,6.25-.22,8.81-2.01,2.56-1.78,4.62-4.18,6.98-6.22,3.06-2.65,6.63-4.7,10.46-6.01,3.55-1.21,7.35-1.82,10.59-3.7,4.56-2.65,7.38-7.45,9.99-12.04,3.05-5.37,4.32-14.67-4.2-15.02-6.73-.27-15.63,3.37-21.26,6.65Z" style="fill:#f0b160;"></path><path d="m575.1,399.94c7.25-12.56,16.67-32.88,16.67-37.01s-14.88-8.29-24.09-5.74c-9.21,2.55-14.34,18.52-14.34,18.52l21.76,24.23Z" style="fill:#eda749;"></path><path d="m510.2,347.17c6.67-1.22,18.59-10.41,19.99-11.22,1.4-.81,9.01,8.58,12.79,19.09,2.61,7.25,1.69,7.89,1.69,7.89,0,0-18.61,10.26-26.64,18.29-8.03,8.03-7.83-34.06-7.83-34.06Z" style="fill:#eda749;"></path><path d="m547.7,364.81c-17.28-9.98-20.94-24.07-14.75-42.15,6.19-18.08,15.2-39.43,34.74-39.43,19.54,0,31.83,19.84,36.59,39.43,4.76,19.59,9.14,33.29-13.72,46.6-17.03,9.92-42.86-4.46-42.86-4.46Z" style="fill:#eda749;"></path><path d="m523.21,359.01c1.23,5.72,1.91,11.64.25,17.2-2.47,8.3-13,15.26-21.52,11.84-9.44-3.79-16-14.68-19.58-23.65-4.19-10.52-6.49-25.02,3.7-32.93,5.07-3.94,12.2-5.04,18.22-2.82,5.36,1.97,9.6,6.31,12.45,11.27,2.85,4.95,4.44,10.52,5.78,16.07.24,1,.48,2.01.7,3.03Z" style="fill:#f0b160;"></path><path d="m537.81,377.12c-4.59,10.25-2.98,22.89,4.78,32.54,7.33,9.12,20.72,12.14,28.42,1.53,7.05-9.71,12.58-22.58,7.55-34.56-3.27-7.79-10.87-13.91-19.38-14.73-10.08-.97-17.52,6.59-21.38,15.21Z" style="fill:#f0b160;"></path><path d="m508.97,361.84c4.75,12.24,3.12,22.66-3.65,23.26-6.77.6-16.1-8.83-20.85-21.08-4.75-12.24-3.12-22.66,3.65-23.26,6.77-.6,16.1,8.83,20.85,21.08Z" style="fill:#f5d498;"></path><path d="m540.47,380.02c-4.75,6.76-3.12,19.06,3.65,27.48,6.77,8.42,16.1,9.76,20.85,3,4.75-6.76,3.12-19.06-3.65-27.48-6.77-8.42-16.1-9.76-20.85-3Z" style="fill:#f5d498;"></path><path d="m547.24,300.63c1.15-1.35,2.3-2.61,3.42-3.76,2.13-2.2,5.18-3.93,8.17-3.25,2.55.59,4.39,2.76,5.87,4.91,8.33,12.15,9.7,26.93,10.3,41.24.15,3.67.27,7.4-.55,10.98s-2.72,7.07-5.82,9.05c-4.59,2.94-10.63,1.99-15.77.17-6.12-2.17-11.96-5.55-16.09-10.56-12.11-14.69-.64-35.8,10.47-48.79Z" style="fill:#f5d498;"></path><path d="m607.43,327.3c1.83,6.59,2.35,13.47,2.87,20.29.73,9.62-1.13,21.06-9.59,27.27-3.39,2.49-8.82,2.71-11.33-.67-2.1-2.82-1.38-6.74-.85-10.21.95-6.21,1.24-13,.05-19.21-.95-4.96-5.1-8.71-6.48-13.68-1.41-5.09-.07-10.49,1.27-15.59,1.57-5.98,7.16-13.51,13.5-7.81,5.01,4.51,8.83,13.33,10.57,19.61Z" style="fill:#f0b160;"></path><path d="m567.8,299.3c-10.9-1.87-22.15-7.65-27.59-16.75-9.4-15.7-1.02-40.48,15.82-47.58,10.29-4.34,22.52-3.94,32.6.81,11.38,5.37,18.37,16.6,19.92,28.99,2.13,17.05-8.5,29.22-24.31,33.82-2.39.7-4.84,1.24-7.32,1.34-2.92.12-6-.1-9.12-.64Z" style="fill:#eda749;"></path><path d="m551.74,257.27c-.77,3.12-3.01,5.24-5,4.75-1.99-.49-4.91-4.08-4.13-7.19.77-3.12,4.95-4.59,6.93-4.09,1.99.49,2.97,3.42,2.2,6.54Z" style="fill:#736346;"></path><path d="m554.94,261.21c-8.93-3.03-16.2,5.69-16.2,18.49s17.77,16.22,17.77,16.22c0,0,16.05,2.56,16.05-15.37s-17.62-19.35-17.62-19.35Z" style="fill:#edcc91;"></path><path d="m543.83,266.14c.57-1.14,1.82-1.78,3.04-2.16,2.85-.87,6.01-.67,8.72.55,2.21.99,4.24,1.81,5.63,3.97.91,1.42,1.3,3.23.75,4.82-.57,1.66-2.06,2.88-3.7,3.5-1.64.63-3.43.74-5.18.78-4.86.11-12.05-5.87-9.25-11.47Z" style="fill:#736346;"></path><path d="m574,262.41c-.78,3.15-3.61,5.17-6.3,4.5s-4.79-3.77-4-6.92c.78-3.15,4.14-5.17,6.84-4.5,2.7.67,4.25,3.77,3.47,6.92Z" style="fill:#736346;"></path><path d="m545.32,254.14c-.44.79-1.8,1.38-2.12.17-.24-.91.91-1.82,1.62-2.1.07-.03.15-.05.23-.03.08.02.13.09.18.16.36.52.39,1.25.09,1.8Z" style="fill:#9e9380;"></path><path d="m567.15,259.46c-.51.75-1.92,1.2-2.13-.02-.15-.93,1.07-1.73,1.81-1.94.08-.02.16-.04.23-.01.08.03.13.1.17.17.31.55.28,1.28-.08,1.81Z" style="fill:#9e9380;"></path><path d="m609.57,263.45c-3.27,3.27-10.72,6.58-15.92,3.58-5.2-3,1.45-6.83,1.45-6.83,0,0-.95-6.14-6.31-11.5-1.99,2.39-7.77.94-6.19-2.88,4.64-11.27,11.72-14.81,20.56-5.97,7.28,7.28,10.41,19.6,6.41,23.6Z" style="fill:#f0b160;"></path><path d="m600.63,257.47s-2.12,1.77-5.52,2.73c0,0-.95-6.14-6.31-11.5,2.76-4.21,3.49-5.24,3.49-5.24,0,0,8.34,4.32,8.34,14.02Z" style="fill:#faa176;"></path><path d="m562.68,232.88c0,2.36-5.34,3.41-6.65,2.1-2.33.98-6.41,3.77-7.7,4.92-.99.88-1.57,1.51-1.57,1.51,0,0-4.87-2.02-6.83-8.59-1.96-6.56,12.27-15.88,16.58-14.41,3.22,1.1,6.17,12.1,6.17,14.47Z" style="fill:#f0b160;"></path><path d="m556.03,234.97c-2.33.98-6.41,3.77-7.7,4.92-2.99-3.17-3.35-6.67-3.35-6.67,1.07-4.62,7.39-6.52,7.39-6.52,0,0,3.03,5.15,3.66,8.27Z" style="fill:#faa176;"></path><path d="m342.11,452.62l72.54-46.27c2.98-1.9,6.76-1.96,9.8-.17l90.25,54.52c6,3.54,6.19,12.15.35,15.95l-43.31,28.14c-7.38,4.79-15.61,8.12-24.25,9.79-13.19,2.55-31.87,4.59-40.41-1.94.08-13.22,10.95-48.97,10.95-48.97l-15.16-4.11-60.77-6.94Z" style="fill:#141415; opacity:.25;"></path><polygon points="477.07 485.74 446.84 503.19 446.84 468.28 477.07 450.83 477.07 485.74" style="fill:#ffb96b;"></polygon><polygon points="416.61 415.93 446.84 433.38 416.61 450.83 386.38 433.38 416.61 415.93" style="fill:#ffca6b;"></polygon><path d="m436.02,434.92l-.87.5-16.93,9.77c-.99.58-2.22.58-3.22,0l-16.92-9.77-.87-.5c-1.18-.68-1.18-2.4,0-3.08l17.79-10.27c1-.57,2.23-.57,3.22,0l17.8,10.27c1.18.68,1.18,2.4,0,3.08Z" style="fill:#ffb96b;"></path><path d="m435.15,435.42l-16.93,9.77c-.99.58-2.22.58-3.22,0l-16.92-9.77,16.92-9.77c1-.57,2.23-.57,3.22,0l16.93,9.77Z" style="fill:#f28c42;"></path><polygon points="386.38 398.47 416.61 415.93 386.38 433.38 356.15 415.93 386.38 398.47" style="fill:#ffca6b;"></polygon><path d="m395.56,412.77l-.58,1.01-7.74,13.41c-.47.82-1.51,1.09-2.33.62l-16.29-9.4-.37-.21c-1.36-.79-1.01-2.84.53-3.13l24.99-4.81c1.43-.28,2.52,1.26,1.78,2.52Z" style="fill:#ffb96b;"></path><path d="m394.97,413.78l-7.74,13.41c-.47.82-1.51,1.09-2.33.62l-16.29-9.4c.05-.03.1-.04.16-.05l24.99-4.81c.45-.09.87.01,1.2.23Z" style="fill:#f28c42;"></path><polygon points="416.61 485.74 446.84 503.19 446.84 468.28 416.61 450.83 416.61 485.74" style="fill:#ffda6b;"></polygon><polygon points="386.38 468.29 416.61 485.74 416.61 450.83 386.38 433.38 386.38 468.29" style="fill:#ffda6b;"></polygon><polygon points="356.15 450.83 386.38 468.29 386.38 433.38 356.15 415.93 356.15 450.83" style="fill:#ffda6b;"></polygon><polygon points="446.84 433.38 477.07 450.83 446.84 468.28 416.61 450.83 446.84 433.38" style="fill:#ffca6b;"></polygon><path d="m463.83,452.63c-.6,1.92-2.2,3.76-4.78,5.25-6.74,3.89-17.68,3.89-24.42,0-2.58-1.49-4.18-3.34-4.78-5.25-.98-3.12.61-6.45,4.78-8.85,6.74-3.9,17.68-3.9,24.42,0,4.17,2.41,5.76,5.73,4.78,8.85Z" style="fill:#ffb96b;"></path><path d="m463.83,452.63c-.6,1.92-2.2,3.76-4.78,5.25-6.74,3.89-17.68,3.89-24.42,0-2.58-1.49-4.18-3.34-4.78-5.25.6-1.92,2.2-3.76,4.78-5.25,6.74-3.9,17.68-3.9,24.42,0,2.58,1.49,4.18,3.34,4.78,5.25Z" style="fill:#f28c42;"></path><path d="m357.94,439.92v44.65c.57-.02,1.12-.31,1.42-.84l7.74-13.41.58-1.01c.17-.29.23-.6.23-.89h0v-.06s0,0,0,0v-30.1s-9.98,1.69-9.98,1.69Z" style="fill:#e8a200;"></path><path d="m339.53,443.04v30.37s.01,0,.01,0c.04.52.3,1.02.83,1.33l.37.21,16.29,9.4c.28.16.6.23.9.22v-44.65l-18.4,3.11Z" style="fill:#ffc20e;"></path><path d="m367.68,439.13l-.58,1.01-7.74,13.41c-.47.82-1.51,1.09-2.33.62l-16.29-9.4-.37-.21c-1.36-.79-1.01-2.84.53-3.13l24.99-4.81c1.43-.28,2.52,1.26,1.78,2.52Z" style="fill:#ffd364;"></path><path d="m367.6,460.41v29.46h0c0,.61.3,1.21.9,1.56l14.29,8.25c.54.31,1.15.47,1.76.47v-39.57l-16.95-.17Z" style="fill:#2c393f;"></path><path d="m384.55,460.58v39.57c.61,0,1.22-.16,1.76-.47l14.29-8.25c.6-.35.9-.95.9-1.56v-29.12s-16.95-.17-16.95-.17Z" style="fill:#415156;"></path><path d="m368.5,458.85l14.29-8.25c1.09-.63,2.43-.63,3.52,0l14.29,8.25c1.2.69,1.2,2.42,0,3.12l-14.29,8.25c-1.09.63-2.43.63-3.52,0l-14.29-8.25c-1.2-.69-1.2-2.42,0-3.12Z" style="fill:#4b5d63;"></path><path d="m400.62,479.23v27.47c0,2.25,1.49,4.5,4.46,6.22,5.95,3.43,15.6,3.43,21.54,0,2.97-1.72,4.46-3.97,4.46-6.22v-27.47h-30.47Z" style="fill:#00b5b0;"></path><path d="m426.63,473.01c5.95,3.43,5.95,9,0,12.44-5.95,3.44-15.6,3.44-21.54,0-5.95-3.43-5.95-9,0-12.44,5.95-3.44,15.6-3.44,21.54,0Z" style="fill:#00c7c7;"></path></g></svg>