<svg xmlns="http://www.w3.org/2000/svg" viewBox="0 0 1725.28 493"><defs><style>.cls-1{fill:#fff;}.cls-2{fill:#ffc20e;}.cls-3{fill:#00c7c7;}</style></defs><title>Logicode_White</title><g id="Layer_2" data-name="Layer 2"><g id="Layer_1-2" data-name="Layer 1"><polygon class="cls-1" points="1315.54 94.63 1397.49 141.95 1479.43 94.63 1397.49 47.32 1315.54 94.63"/><polygon class="cls-2" points="1479.43 94.63 1479.43 283.9 1397.49 331.22 1397.49 141.95 1479.43 94.63"/><polygon class="cls-3" points="1479.43 378.54 1397.49 331.22 1397.49 141.95 1315.54 94.63 1315.54 378.54 1479.43 473.17 1479.43 378.54"/><polygon class="cls-1" points="1479.43 283.9 1561.38 331.22 1479.43 378.54 1397.49 331.22 1479.43 283.9"/><polygon class="cls-3" points="1479.43 94.63 1643.33 0 1725.28 47.32 1561.38 141.95 1479.43 94.63"/><polygon class="cls-1" points="1561.38 425.86 1725.28 331.22 1725.28 236.59 1643.33 283.9 1643.33 189.27 1725.28 141.95 1725.28 47.32 1561.38 141.95 1561.38 425.86"/><polygon class="cls-2" points="1725.28 236.59 1643.33 189.27 1643.33 283.9 1725.28 236.59"/><path class="cls-1" d="M220.66,108.65v64A8.22,8.22,0,0,1,212.3,181H190.12V348.58a8.23,8.23,0,0,1-8.36,8.36H114.51a8.23,8.23,0,0,1-8.36-8.36V181H8.36A8.23,8.23,0,0,1,0,172.63v-64a8.23,8.23,0,0,1,8.36-8.36H212.3A8.22,8.22,0,0,1,220.66,108.65Z"/><path class="cls-1" d="M250.46,108.65a8.23,8.23,0,0,1,8.36-8.36h67.25a8.22,8.22,0,0,1,8.36,8.36V348.58a8.23,8.23,0,0,1-8.36,8.36H258.82a8.23,8.23,0,0,1-8.36-8.36Z"/><path class="cls-1" d="M359.88,108.65a8.22,8.22,0,0,1,8.36-8.36H554.73c26.17,0,48.71,19.26,48.71,48.35A100.77,100.77,0,0,1,600.9,169L553.28,349.3c-1.1,3.64-4.37,7.64-8.73,7.64H474c-4.73,0-7.27-2.91-7.27-7.64v-1.45L510,183.54c.37-1.46,0-2.55-1.45-2.55H368.24a8.22,8.22,0,0,1-8.36-8.36Zm0,114.51a8.22,8.22,0,0,1,8.36-8.36h67.25a8.22,8.22,0,0,1,8.36,8.36v189a8.22,8.22,0,0,1-8.36,8.36H368.24a8.22,8.22,0,0,1-8.36-8.36Z"/><path class="cls-1" d="M630.8,108.65a8.22,8.22,0,0,1,8.36-8.36h67.25a8.22,8.22,0,0,1,8.36,8.36v131.6a8.23,8.23,0,0,1-8.36,8.36H639.16a8.23,8.23,0,0,1-8.36-8.36Z"/><path class="cls-1" d="M904.79,356.94h-72c-4.36,0-6.91-2.91-8-6.91l-13.46-43.26c-5.45,16.72-11.27,30.9-20,39.63C780.1,357.67,767.74,358,753.93,358H743.38c-5.45,0-9.81-2.18-9.81-6.91l-1.09-72.34c0-4,3.27-6.91,6.91-8h16c9.82,0,20,.37,27.27-2.91A22.55,22.55,0,0,0,795,253.7L751,111.56c-1.46-4.36,1.45-11.27,5.45-11.27h74.16c5.82,0,8.73,4.36,10.54,10.54l69.44,234.84C912.79,351.49,909.52,356.94,904.79,356.94Z"/><path class="cls-1" d="M928.41,108.65a8.23,8.23,0,0,1,8.36-8.36H1004a8.23,8.23,0,0,1,8.36,8.36V348.58a8.23,8.23,0,0,1-8.36,8.36H936.77a8.23,8.23,0,0,1-8.36-8.36Z"/><path class="cls-1" d="M1254.13,145.37c0,6.9-2.18,16.72-5.45,27.26l-55.26,175.22c-1.82,5.09-6.18,9.09-11.63,9.09H1110.9c-4.73,0-8-3.64-8-8.36a6.11,6.11,0,0,1,.37-2.55l.36-.72,52.71-162.86c.36-.73,0-1.46-.72-1.46H1042.56a8.22,8.22,0,0,1-8.36-8.36V55.94a8.22,8.22,0,0,1,8.36-8.36h66.16a8.22,8.22,0,0,1,8.36,8.36v44.35l90.88-.37C1233.41,99.92,1254.13,118.1,1254.13,145.37Z"/><path class="cls-3" d="M531.07,474.51h-8.46c-18,0-29.92-9-30-29.78l-.22-48.49a2.53,2.53,0,0,1,2.56-2.59h12.23a2.53,2.53,0,0,1,2.56,2.59l.11,46.8c.12,11.5,7.12,14.89,14.57,14.89h5.68c7.34,0,14.13-3.16,14.13-15.34L544,410.11H528.73a2.32,2.32,0,0,1-2.44-2.59l.11-11.39a2.38,2.38,0,0,1,2.56-2.48h29.47a2.78,2.78,0,0,1,2.56,2.7L561.1,443C561.21,464.47,549.31,474.51,531.07,474.51Z"/><path class="cls-3" d="M578.12,396.24a2.53,2.53,0,0,1,2.56-2.59H592.8a2.53,2.53,0,0,1,2.56,2.59v74.43a2.54,2.54,0,0,1-2.56,2.6H580.68a2.54,2.54,0,0,1-2.56-2.6Z"/><path class="cls-3" d="M701.26,396.24v46.69c0,20.19-11.13,30.34-29.59,30.34H615.83a2.61,2.61,0,0,1-2.9-2.94l-.33-74.09a2.53,2.53,0,0,1,2.56-2.59H627a2.53,2.53,0,0,1,2.56,2.59V457h18.91V396.24a2.53,2.53,0,0,1,2.56-2.59h11.34a2.53,2.53,0,0,1,2.56,2.59V457h6.45c7.35,0,13.13-3.61,13.13-15.57V396.24a2.53,2.53,0,0,1,2.56-2.59H698.7A2.54,2.54,0,0,1,701.26,396.24Z"/><path class="cls-3" d="M781.45,422.4v19.74c0,20.3-10.78,31.13-27.69,31.13H720.83a2.54,2.54,0,0,1-2.56-2.6V459.28a2.53,2.53,0,0,1,2.56-2.59h30c8.57,0,13.46-4.4,13.46-15.34l-.11-17c-.11-10.49-5.89-14.66-13.23-14.66H735.29v24.59a2.45,2.45,0,0,1-2.45,2.59H720.72a2.53,2.53,0,0,1-2.56-2.59v-38a2.53,2.53,0,0,1,2.56-2.59H754C770.22,393.65,781.45,402.11,781.45,422.4Z"/><path class="cls-3" d="M826.61,396.24a2.53,2.53,0,0,1,2.56-2.59h34.26c14.8,0,23,11.5,23,25v71.73A2.53,2.53,0,0,1,883.9,493H871.77a2.44,2.44,0,0,1-2.44-2.59v-67c0-8.57-4.56-13.08-10.35-13.08H829.17a2.54,2.54,0,0,1-2.56-2.6Z"/><path class="cls-3" d="M962.43,420.49v25.15c0,17-10.35,27.63-25.7,27.63H903.25a2.54,2.54,0,0,1-2.56-2.6v-11.5a2.54,2.54,0,0,1,2.56-2.6H933.4c6.45,0,11.79-3.72,11.79-14V424c0-9.58-5.79-13.64-11.9-13.64h-30a2.54,2.54,0,0,1-2.56-2.6v-11.5a2.53,2.53,0,0,1,2.56-2.59h34.82C951.86,393.65,962.43,403.68,962.43,420.49Z"/><path class="cls-3" d="M1073.55,396.24v11.5a2.54,2.54,0,0,1-2.56,2.6h-9v60.33a2.54,2.54,0,0,1-2.56,2.6H1047.3a2.54,2.54,0,0,1-2.56-2.6V410.34h-34.48a2.54,2.54,0,0,1-2.56-2.6v-11.5a2.53,2.53,0,0,1,2.56-2.59H1071A2.53,2.53,0,0,1,1073.55,396.24Z"/><path class="cls-3" d="M1087.34,396.24a2.53,2.53,0,0,1,2.56-2.59H1102a2.53,2.53,0,0,1,2.56,2.59v74.43a2.54,2.54,0,0,1-2.56,2.6H1089.9a2.54,2.54,0,0,1-2.56-2.6Z"/><path class="cls-3" d="M1120.71,396.24a2.53,2.53,0,0,1,2.56-2.59h54.39c8,0,13.91,4.73,13.91,13.19a39.65,39.65,0,0,1-1.23,7l-17,57.07a3.1,3.1,0,0,1-2.67,2.37h-12.9a2.09,2.09,0,0,1-2.22-2.37v-.45l17-56.28c.77-2.25-.12-3.83-2.56-3.83h-46.72a2.54,2.54,0,0,1-2.56-2.6Zm.55,34.17a2.53,2.53,0,0,1,2.56-2.59H1136a2.53,2.53,0,0,1,2.56,2.59v60A2.54,2.54,0,0,1,1136,493h-12.13a2.54,2.54,0,0,1-2.56-2.59Z"/></g></g></svg>